<?xml version="1.0" encoding="UTF-8" standalone="no"?><!-- Generator: Gravit.io --><svg xmlns="http://www.w3.org/2000/svg" xmlns:xlink="http://www.w3.org/1999/xlink" style="isolation:isolate" viewBox="0 0 900 456" width="900pt" height="456pt"><g><path d=" M 234.094 345.484 C 234.094 345.484 267.818 352.569 266.112 358.77 C 264.409 364.974 229.104 348.167 229.104 348.167 C 229.104 348.167 203.072 371.482 199.451 383.365 C 199.451 383.365 237.47 377.979 234.295 383.57 C 231.116 389.162 191.815 396.607 191.815 396.607 C 191.815 396.607 173.945 424.173 189.63 436.294 C 205.312 448.415 217.346 444.341 220.28 440.375 C 223.214 436.409 234.587 407.877 237.964 410.141 C 241.337 412.405 239.299 434.015 231.563 443.328 C 231.563 443.328 265.518 443.598 270.45 427.508 C 275.382 411.414 267.797 402.653 271.022 392.764 C 274.252 382.878 279.727 376.944 280.321 382.802 C 280.915 388.665 272.473 404.164 275.843 414.63 C 279.209 425.096 280.667 433.042 289.559 419.886 C 298.447 406.734 307.282 380.171 298.375 370.429 C 297.986 370.004 297.616 369.6 297.263 369.211 C 298.044 369.903 298.375 370.429 298.375 370.429 C 301.018 368.417 310.028 367.498 316.822 367.083 C 317.945 367.087 319.532 367.019 321.721 366.842 L 321.725 366.842 C 322.697 366.809 323.489 366.784 324.04 366.773 C 338.796 366.957 359.546 378.714 359.546 378.714 L 361.642 375.985 C 342.421 360.035 319.385 364.462 319.385 364.462 C 301.828 366.247 289.469 360.688 289.469 360.688 C 289.469 360.688 285.448 326.632 259.132 330.829 C 259.132 330.829 241.981 335.804 234.094 345.484 Z " fill="rgb(125,182,253)"/><path d=" M 678.722 58.531 C 669.737 25.312 613.764 35.693 613.764 35.693 C 613.764 35.693 575.755 93.826 564.7 95.211 C 553.64 96.595 587.502 39.154 587.502 39.154 C 566.082 37.077 511.488 63.376 511.488 63.376 C 511.488 63.376 514.94 131.198 503.885 129.814 C 492.829 128.43 503.885 69.604 503.885 69.604 C 483.152 75.833 463.802 100.056 463.802 100.056 C 439.618 139.501 491.447 168.57 491.447 168.57 C 491.447 168.57 492.138 192.098 477.626 219.091 L 477.623 219.091 C 477.623 219.091 474.35 224.074 471.02 232.546 L 476.672 232.546 C 477.133 231.028 477.644 229.561 478.206 228.151 L 478.217 228.126 L 478.242 228.065 C 478.631 227.192 479.185 225.945 479.88 224.43 L 479.88 224.423 L 479.884 224.416 C 481.612 221.031 482.778 218.532 483.516 216.726 L 483.523 216.708 C 488.696 206.083 496.148 192.235 501.12 189.333 C 501.12 189.333 500.497 188.45 499.91 186.737 C 500.296 187.563 500.699 188.428 501.12 189.333 C 510.797 210.092 559.17 213.553 586.12 208.019 C 613.073 202.482 601.322 194.867 586.811 182.512 C 572.299 170.157 541.894 173.416 532.908 168.57 C 523.926 163.725 537.055 158.88 555.023 160.264 C 572.99 161.648 581.976 179.642 610.999 182.411 C 640.022 185.18 662.137 130.506 662.137 130.506 C 642.096 136.736 606.161 125.661 604.778 118.742 C 603.396 111.82 656.608 112.512 664.902 110.436 C 673.193 108.359 687.708 91.75 678.722 58.531 Z " fill="rgb(175,205,251)"/><path d=" M 142.06 60.974 C 154.433 41.139 188.798 58.928 188.798 58.928 C 188.798 58.928 202.09 104.235 209.009 107.313 C 215.928 110.392 205.2 66.357 205.2 66.357 C 219.539 69.23 249.876 97.1 249.876 97.1 C 249.876 97.1 234.295 140.529 241.762 141.812 C 249.224 143.092 253.598 102.648 253.598 102.648 C 265.856 110.789 273.679 130.358 273.679 130.358 C 281.657 160.783 242.23 169.472 242.23 169.472 C 242.23 169.472 237.154 184.639 241.286 205.052 L 241.29 205.056 C 241.29 205.056 242.438 208.942 242.939 215.107 L 239.263 213.993 C 239.26 212.915 239.22 211.859 239.13 210.831 L 239.126 210.813 L 239.123 210.77 C 239.044 210.125 238.925 209.205 238.774 208.084 L 238.77 208.077 L 238.77 208.073 C 238.313 205.532 238.046 203.675 237.92 202.355 L 237.92 202.341 C 236.646 194.409 234.518 183.936 231.858 181.066 C 231.858 181.066 232.438 180.616 233.154 179.617 C 232.74 180.079 232.308 180.562 231.858 181.066 C 221.483 192.661 189.338 185.375 172.897 176.459 C 156.46 167.543 165.596 164.911 177.462 159.734 C 189.331 154.56 208.469 162.672 215.262 161.295 C 222.059 159.914 214.47 154.175 202.514 151.532 C 190.555 148.889 181.174 158.822 161.752 154.899 C 142.33 150.977 138.697 111.056 138.697 111.056 C 150.505 119.059 176.054 118.944 178.315 114.715 C 180.576 110.486 145.829 100.445 140.843 97.457 C 135.857 94.472 129.686 80.808 142.06 60.974 Z " fill="rgb(175,205,251)"/><path d=" M 432.67 58.6 C 424.012 44.154 399.028 56.529 399.028 56.529 C 399.028 56.529 388.876 88.993 383.854 91.123 C 378.828 93.253 387.122 61.67 387.122 61.67 C 376.754 63.557 354.546 83.243 354.546 83.243 C 354.546 83.243 365.216 114.726 359.824 115.555 C 354.431 116.381 351.796 87.194 351.796 87.194 C 342.86 92.9 336.978 106.895 336.978 106.895 C 330.844 128.711 359.132 135.471 359.132 135.471 C 359.132 135.471 362.592 146.463 359.356 161.115 L 359.356 161.115 C 359.356 161.115 358.477 163.902 358.038 168.336 L 360.702 167.579 C 360.716 166.804 360.76 166.043 360.839 165.304 L 360.839 165.293 L 360.842 165.261 C 360.911 164.796 361.004 164.136 361.13 163.328 L 361.13 163.325 L 361.13 163.321 C 361.494 161.497 361.71 160.163 361.818 159.215 L 361.818 159.204 C 362.837 153.508 364.5 145.991 366.455 143.957 C 366.455 143.957 366.044 143.626 365.54 142.897 C 365.832 143.233 366.138 143.586 366.455 143.957 C 373.781 152.444 397.026 147.602 408.985 141.394 C 420.941 135.182 414.392 133.167 405.907 129.288 C 397.426 125.408 383.537 131.007 378.662 129.926 C 373.784 128.848 379.321 124.81 387.968 123.058 C 396.616 121.309 403.247 128.581 417.287 126.007 C 431.327 123.429 434.455 94.72 434.455 94.72 C 425.844 100.334 407.444 99.923 405.871 96.847 C 404.294 93.772 429.451 86.983 433.08 84.896 C 436.709 82.81 441.331 73.046 432.67 58.6 Z " fill="rgb(125,182,253)"/><path d=" M 10.926 440.432 C 10.649 440.508 10.296 440.587 9.85 440.667 C 10.21 440.58 10.562 440.501 10.926 440.432 Z " fill="rgb(149,195,139)"/><path d=" M 364.028 240.146 L 347.033 442.538 C 347.033 442.538 345.251 454.807 354.366 454.828 C 369.346 454.864 428.936 454.828 428.936 454.828 C 428.936 454.828 417.661 452.272 417.798 446.525 C 417.96 439.755 437.663 238.231 437.663 238.231 L 364.028 240.146 Z " fill="rgb(251,115,105)"/><path d=" M 433.771 451.155 C 430.826 451.165 373.91 451.342 359.32 451.155 C 352.958 451.075 351.846 445.494 351.792 441.878 C 351.767 440.148 351.986 438.868 351.986 438.868 L 352.426 433.608 L 353.552 420.2 L 354.55 408.353 L 355.828 393.131 L 356.904 380.286 L 368.982 236.472 L 442.616 234.561 C 442.616 234.561 434.318 318.895 428.447 380.286 C 427.792 387.125 427.169 393.683 426.593 399.805 C 426.406 401.759 426.226 403.67 426.049 405.534 C 425.506 411.342 425.009 416.674 424.577 421.382 C 424.346 423.866 424.138 426.174 423.947 428.286 C 423.198 436.564 422.759 441.849 422.752 442.855 C 422.748 443.443 422.798 443.987 422.896 444.496 C 424.105 450.945 432.666 451.155 433.771 451.155 Z " fill="rgb(251,115,105)"/><path d=" M 185.206 130.012 L 226.606 296.557 L 232.276 319.364 L 251.557 396.935 L 609.797 396.935 L 538.722 130.012 L 185.206 130.012 Z " fill="rgb(251,115,105)"/><path d=" M 185.206 130.012 L 179.467 131.93 L 243.929 402.729 L 251.557 396.935 L 185.206 130.012 Z " fill="rgb(251,115,105)"/><path d=" M 243.929 402.729 L 599.962 402.729 L 609.793 396.935 L 251.557 396.935 L 243.929 402.729 Z " fill="rgb(251,115,105)"/><path d=" M 368.957 454.904 L 446.044 454.904 L 446.044 451.237 L 368.957 451.237 L 368.957 454.904 Z " fill="rgb(251,115,105)"/><path d=" M 592.441 347.752 L 534.312 133.542 L 186.084 133.542 L 185.206 130.016 L 538.722 130.012 L 596.657 347.273 L 592.441 347.752 Z " fill="rgb(58,74,206)"/><path d=" M 426.049 405.534 L 426.049 405.534 C 426.136 404.611 426.226 403.673 426.316 402.729 L 426.449 402.729 L 426.049 405.534 Z " fill="rgb(242,246,252)"/><path d=" M 353.552 420.2 L 354.55 408.353 L 355.021 402.729 L 426.316 402.729 C 426.226 403.673 426.136 404.611 426.049 405.534 L 426.049 405.534 L 353.552 420.2 Z " fill="rgb(244,139,135)"/><path d=" M 426.449 402.729 L 426.316 402.729 L 355.021 402.729 L 355.021 402.729 L 426.449 402.729 L 426.449 402.729 Z " fill="rgb(244,139,135)"/><path d=" M 394.542 451.237 L 377.075 451.237 C 369.475 451.227 363.028 451.201 359.32 451.155 C 352.958 451.075 351.846 445.494 351.792 441.878 L 423.947 428.286 C 423.198 436.564 422.759 441.849 422.752 442.855 C 422.752 442.873 422.752 442.891 422.752 442.909 C 422.752 443.475 422.802 444.002 422.896 444.496 C 424.105 450.945 432.666 451.155 433.771 451.155 C 432.112 451.158 413.269 451.219 394.542 451.237 Z " fill="rgb(244,139,135)"/><path d=" M 385.193 451.241 C 382.392 451.241 379.667 451.237 377.075 451.237 L 377.075 451.237 L 394.542 451.237 C 391.396 451.237 388.249 451.241 385.193 451.241 Z " fill="rgb(244,139,135)"/><path d=" M 408.928 342.899 L 251.557 396.935 L 232.276 319.364 L 408.928 342.899 Z " fill="rgb(242,86,75)"/><path d=" M 185.206 130.012 L 538.722 130.012 L 596.081 344.533 L 238.532 344.533 L 185.206 130.012 Z " fill="rgb(105,157,238)"/><path d=" M 432.511 381.18 C 427.255 381.18 422.172 376.915 421.15 371.651 C 420.127 366.391 423.558 362.126 428.814 362.126 C 434.066 362.126 439.153 366.391 440.172 371.651 C 441.194 376.915 437.764 381.18 432.511 381.18 Z " fill="rgb(244,139,135)"/><path d=" M 579.409 335.238 L 248.407 335.238 L 210.924 185.692 L 208.051 174.224 L 205.596 164.442 L 199.85 141.506 L 526.079 141.506 L 532.393 164.442 L 535.086 174.224 L 538.24 185.692 L 579.409 335.238 Z " fill="rgb(228,237,249)"/><path d=" M 532.393 164.442 L 205.596 164.442 L 199.85 141.506 L 526.079 141.506 L 532.393 164.442 Z " fill="rgb(175,205,251)"/><path d=" M 213.343 151.871 C 212.951 150.288 213.912 149.005 215.492 149.005 C 217.076 149.005 218.675 150.288 219.071 151.871 C 219.467 153.454 218.502 154.737 216.922 154.737 C 215.341 154.737 213.739 153.454 213.343 151.871 Z " fill="rgb(217,233,254)"/><path d=" M 222.858 151.871 C 222.462 150.288 223.427 149.005 225.007 149.005 C 226.588 149.005 228.19 150.288 228.586 151.871 C 228.978 153.454 228.017 154.737 226.433 154.737 C 224.852 154.737 223.25 153.454 222.858 151.871 Z " fill="rgb(217,233,254)"/><path d=" M 233.1 151.871 C 232.708 150.288 233.669 149.005 235.249 149.005 C 236.833 149.005 238.432 150.288 238.828 151.871 C 239.22 153.454 238.259 154.737 236.678 154.737 C 235.098 154.737 233.496 153.454 233.1 151.871 Z " fill="rgb(217,233,254)"/><path d=" M 506.495 321.971 L 261.313 321.971 L 223.999 175.334 L 465.721 175.334 L 506.495 321.971 Z " fill="rgb(202,224,255)"/><path d=" M 538.2 209.454 L 482.63 209.454 L 472.471 175.334 L 528.714 175.334 L 538.2 209.454 Z " fill="rgb(210,227,252)"/><path d=" M 388.282 189.614 L 356.486 189.614 L 355.18 184.704 L 386.975 184.704 L 388.282 189.614 Z " fill="rgb(28,70,138)"/><path d=" M 444.654 189.614 L 392.641 189.614 L 391.331 184.704 L 443.347 184.704 L 444.654 189.614 Z " fill="rgb(120,172,234)"/><path d=" M 393.624 202.842 L 337.241 202.842 L 335.93 197.932 L 392.317 197.932 L 393.624 202.842 Z " fill="rgb(120,172,234)"/><path d=" M 427.925 202.842 L 398.7 202.842 L 397.39 197.932 L 426.618 197.932 L 427.925 202.842 Z " fill="rgb(58,74,206)"/><path d=" M 397.876 225.613 L 366.08 225.613 L 364.774 220.706 L 396.569 220.706 L 397.876 225.613 Z " fill="rgb(105,157,238)"/><path d=" M 454.248 225.613 L 402.235 225.613 L 400.925 220.706 L 452.941 220.706 L 454.248 225.613 Z " fill="rgb(120,172,234)"/><path d=" M 403.222 238.841 L 346.835 238.841 L 345.524 233.934 L 401.911 233.934 L 403.222 238.841 Z " fill="rgb(255,255,255)"/><path d=" M 437.519 238.841 L 408.294 238.841 L 406.984 233.934 L 436.212 233.934 L 437.519 238.841 Z " fill="rgb(255,255,255)"/><path d=" M 369.079 259.315 L 261.508 259.315 L 260.201 254.405 L 367.769 254.405 L 369.079 259.315 Z " fill="rgb(28,70,138)"/><path d=" M 407.75 259.315 L 375.955 259.315 L 374.645 254.405 L 406.44 254.405 L 407.75 259.315 Z " fill="rgb(105,157,238)"/><path d=" M 464.123 259.315 L 412.106 259.315 L 410.8 254.405 L 462.812 254.405 L 464.123 259.315 Z " fill="rgb(120,172,234)"/><path d=" M 296.827 272.543 L 265.032 272.543 L 263.725 267.632 L 295.52 267.632 L 296.827 272.543 Z " fill="rgb(255,255,255)"/><path d=" M 413.093 272.543 L 356.706 272.543 L 355.399 267.632 L 411.786 267.632 L 413.093 272.543 Z " fill="rgb(58,74,206)"/><path d=" M 353.2 272.543 L 301.187 272.543 L 299.876 267.632 L 351.893 267.632 L 353.2 272.543 Z " fill="rgb(120,172,234)"/><path d=" M 447.394 272.543 L 418.165 272.543 L 416.858 267.632 L 446.083 267.632 L 447.394 272.543 Z " fill="rgb(120,172,234)"/><path d=" M 381.29 295.833 L 273.719 295.833 L 272.412 290.922 L 379.984 290.922 L 381.29 295.833 Z " fill="rgb(28,70,138)"/><path d=" M 419.962 295.833 L 388.166 295.833 L 386.86 290.922 L 418.655 290.922 L 419.962 295.833 Z " fill="rgb(105,157,238)"/><path d=" M 309.038 309.06 L 277.247 309.06 L 275.936 304.15 L 307.732 304.15 L 309.038 309.06 Z " fill="rgb(255,255,255)"/><path d=" M 425.304 309.06 L 368.917 309.06 L 367.61 304.15 L 423.997 304.15 L 425.304 309.06 Z " fill="rgb(58,74,206)"/><path d=" M 365.411 309.06 L 313.398 309.06 L 312.088 304.15 L 364.104 304.15 L 365.411 309.06 Z " fill="rgb(120,172,234)"/><path d=" M 459.605 309.06 L 430.376 309.06 L 429.07 304.15 L 458.298 304.15 L 459.605 309.06 Z " fill="rgb(120,172,234)"/><path d=" M 510.534 220.01 L 486.079 220.082 L 485.539 217.862 L 509.994 217.786 L 510.534 220.01 Z " fill="rgb(120,172,234)"/><path d=" M 523.433 219.971 L 514.238 219.996 L 513.695 217.771 L 522.893 217.746 L 523.433 219.971 Z " fill="rgb(120,172,234)"/><path d=" M 542.07 219.909 L 525.82 219.96 L 525.28 217.735 L 541.53 217.689 L 542.07 219.909 Z " fill="rgb(120,172,234)"/><path d=" M 500.857 225.667 L 487.451 225.707 L 486.907 223.486 L 500.314 223.443 L 500.857 225.667 Z " fill="rgb(120,172,234)"/><path d=" M 520.405 225.606 L 503.093 225.66 L 502.549 223.435 L 519.865 223.381 L 520.405 225.606 Z " fill="rgb(120,172,234)"/><path d=" M 543.442 225.534 L 523.598 225.595 L 523.055 223.374 L 542.898 223.313 L 543.442 225.534 Z " fill="rgb(120,172,234)"/><path d=" M 513.461 232.023 L 489.006 232.099 L 488.462 229.874 L 512.917 229.802 L 513.461 232.023 Z " fill="rgb(120,172,234)"/><path d=" M 526.356 231.983 L 517.162 232.012 L 516.622 229.788 L 525.816 229.759 L 526.356 231.983 Z " fill="rgb(120,172,234)"/><path d=" M 544.997 231.926 L 528.743 231.976 L 528.203 229.752 L 544.457 229.705 L 544.997 231.926 Z " fill="rgb(120,172,234)"/><path d=" M 503.78 237.683 L 490.374 237.723 L 489.834 235.499 L 503.24 235.459 L 503.78 237.683 Z " fill="rgb(120,172,234)"/><path d=" M 523.328 237.622 L 506.016 237.676 L 505.476 235.452 L 522.788 235.398 L 523.328 237.622 Z " fill="rgb(120,172,234)"/><path d=" M 546.365 237.55 L 526.522 237.611 L 525.982 235.387 L 545.825 235.326 L 546.365 237.55 Z " fill="rgb(120,172,234)"/><path d=" M 494.284 180.071 L 479.556 180.115 L 479.228 178.777 L 493.956 178.73 L 494.284 180.071 Z " fill="rgb(255,255,255)"/><path d=" M 502.049 180.046 L 496.512 180.064 L 496.184 178.723 L 501.721 178.705 L 502.049 180.046 Z " fill="rgb(255,255,255)"/><path d=" M 513.274 180.01 L 503.485 180.042 L 503.161 178.701 L 512.946 178.672 L 513.274 180.01 Z " fill="rgb(255,255,255)"/><path d=" M 488.455 183.478 L 480.38 183.504 L 480.053 182.162 L 488.128 182.137 L 488.455 183.478 Z " fill="rgb(255,255,255)"/><path d=" M 500.227 183.442 L 489.798 183.471 L 489.474 182.133 L 499.9 182.101 L 500.227 183.442 Z " fill="rgb(255,255,255)"/><path d=" M 514.098 183.399 L 502.15 183.435 L 501.822 182.094 L 513.77 182.058 L 514.098 183.399 Z " fill="rgb(255,255,255)"/><path d=" M 496.044 187.307 L 481.316 187.35 L 480.992 186.013 L 495.716 185.966 L 496.044 187.307 Z " fill="rgb(255,255,255)"/><path d=" M 503.809 187.282 L 498.272 187.3 L 497.945 185.959 L 503.485 185.941 L 503.809 187.282 Z " fill="rgb(255,255,255)"/><path d=" M 515.034 187.246 L 505.249 187.278 L 504.922 185.937 L 514.71 185.908 L 515.034 187.246 Z " fill="rgb(255,255,255)"/><path d=" M 490.216 190.714 L 482.141 190.739 L 481.817 189.398 L 489.888 189.373 L 490.216 190.714 Z " fill="rgb(255,255,255)"/><path d=" M 501.988 190.678 L 491.562 190.71 L 491.234 189.369 L 501.66 189.337 L 501.988 190.678 Z " fill="rgb(255,255,255)"/><path d=" M 515.858 190.635 L 503.91 190.671 L 503.582 189.33 L 515.534 189.294 L 515.858 190.635 Z " fill="rgb(255,255,255)"/><path d=" M 518.458 252.555 L 494.003 252.631 L 493.459 250.406 L 517.918 250.331 L 518.458 252.555 Z " fill="rgb(120,172,234)"/><path d=" M 531.353 252.515 L 522.158 252.544 L 521.618 250.32 L 530.813 250.291 L 531.353 252.515 Z " fill="rgb(120,172,234)"/><path d=" M 549.994 252.458 L 533.743 252.508 L 533.2 250.284 L 549.454 250.233 L 549.994 252.458 Z " fill="rgb(120,172,234)"/><path d=" M 508.777 258.215 L 495.371 258.255 L 494.831 256.031 L 508.237 255.991 L 508.777 258.215 Z " fill="rgb(120,172,234)"/><path d=" M 528.329 258.154 L 511.013 258.208 L 510.473 255.984 L 527.785 255.93 L 528.329 258.154 Z " fill="rgb(120,172,234)"/><path d=" M 551.362 258.082 L 531.518 258.143 L 530.978 255.919 L 550.822 255.857 L 551.362 258.082 Z " fill="rgb(120,172,234)"/><path d=" M 523.354 272.68 L 498.899 272.755 L 498.359 270.531 L 522.814 270.455 L 523.354 272.68 Z " fill="rgb(120,172,234)"/><path d=" M 536.252 272.64 L 527.058 272.669 L 526.514 270.444 L 535.712 270.416 L 536.252 272.64 Z " fill="rgb(120,172,234)"/><path d=" M 554.893 272.582 L 538.639 272.633 L 538.099 270.408 L 554.35 270.358 L 554.893 272.582 Z " fill="rgb(120,172,234)"/><path d=" M 513.677 278.336 L 500.27 278.38 L 499.727 276.155 L 513.137 276.112 L 513.677 278.336 Z " fill="rgb(120,172,234)"/><path d=" M 533.225 278.275 L 515.912 278.329 L 515.369 276.105 L 532.685 276.054 L 533.225 278.275 Z " fill="rgb(120,172,234)"/><path d=" M 556.261 278.207 L 536.418 278.268 L 535.878 276.043 L 555.718 275.982 L 556.261 278.207 Z " fill="rgb(120,172,234)"/><path d=" M 527.767 290.807 L 503.312 290.883 L 502.772 288.658 L 527.227 288.586 L 527.767 290.807 Z " fill="rgb(120,172,234)"/><path d=" M 540.666 290.767 L 531.468 290.796 L 530.928 288.572 L 540.122 288.546 L 540.666 290.767 Z " fill="rgb(120,172,234)"/><path d=" M 559.303 290.71 L 543.053 290.76 L 542.509 288.536 L 558.763 288.485 L 559.303 290.71 Z " fill="rgb(120,172,234)"/><path d=" M 518.087 296.467 L 504.68 296.507 L 504.14 294.282 L 517.547 294.243 L 518.087 296.467 Z " fill="rgb(120,172,234)"/><path d=" M 537.638 296.406 L 520.322 296.46 L 519.782 294.236 L 537.095 294.181 L 537.638 296.406 Z " fill="rgb(120,172,234)"/><path d=" M 560.671 296.334 L 540.832 296.395 L 540.288 294.171 L 560.131 294.109 L 560.671 296.334 Z " fill="rgb(120,172,234)"/><path d=" M 535.507 304.803 C 532.296 304.803 530.446 307.42 531.382 310.636 C 532.321 313.852 535.698 316.469 538.909 316.469 C 542.12 316.469 543.971 313.852 543.035 310.636 C 542.095 307.42 538.722 304.803 535.507 304.803 Z  M 539.291 317.774 C 535.36 317.774 531.227 314.573 530.082 310.636 C 528.934 306.699 531.198 303.497 535.129 303.497 C 539.057 303.497 543.19 306.699 544.338 310.636 C 545.483 314.573 543.218 317.774 539.291 317.774 Z " fill="rgb(58,74,206)"/><path d=" M 538.124 314.266 C 537.851 314.248 537.566 314.129 537.325 313.935 L 533.326 310.726 C 532.786 310.293 532.598 309.605 532.912 309.19 C 533.221 308.776 533.912 308.79 534.456 309.226 L 537.278 311.49 L 538.729 308.137 C 538.938 307.651 539.586 307.546 540.173 307.896 C 540.76 308.246 541.066 308.927 540.857 309.414 L 538.952 313.819 C 538.841 314.082 538.592 314.245 538.279 314.266 C 538.229 314.27 538.175 314.27 538.124 314.266 Z " fill="rgb(58,74,206)"/><path d=" M 555.185 304.803 C 551.97 304.803 550.12 307.42 551.059 310.636 C 551.995 313.852 555.372 316.469 558.583 316.469 C 561.798 316.469 563.648 313.852 562.709 310.636 C 561.773 307.42 558.396 304.803 555.185 304.803 Z  M 558.965 317.774 C 555.034 317.774 550.904 314.573 549.756 310.636 C 548.611 306.699 550.872 303.497 554.803 303.497 C 558.734 303.497 562.864 306.699 564.012 310.636 C 565.157 314.573 562.892 317.774 558.965 317.774 Z " fill="rgb(58,74,206)"/><path d=" M 557.226 311.804 L 557.226 311.804 C 556.672 311.804 556.085 311.35 555.923 310.794 L 555.037 307.762 C 554.875 307.207 555.196 306.753 555.75 306.753 C 556.308 306.753 556.891 307.207 557.053 307.762 L 557.939 310.794 C 558.101 311.35 557.777 311.804 557.226 311.804 Z " fill="rgb(58,74,206)"/><path d=" M 558.029 314.183 L 557.809 314.183 C 557.316 314.183 556.79 313.78 556.646 313.282 C 556.502 312.788 556.79 312.384 557.284 312.384 L 557.503 312.384 C 557.996 312.384 558.518 312.788 558.662 313.282 C 558.806 313.78 558.522 314.183 558.029 314.183 Z " fill="rgb(58,74,206)"/><path d=" M 515.293 199.053 C 513.529 199.053 512.514 200.488 513.029 202.254 C 513.544 204.017 515.394 205.452 517.158 205.452 C 518.918 205.452 519.934 204.017 519.419 202.254 C 518.904 200.488 517.054 199.053 515.293 199.053 Z  M 517.363 206.166 C 515.21 206.166 512.946 204.41 512.316 202.254 C 511.686 200.095 512.928 198.339 515.084 198.339 C 517.237 198.339 519.502 200.095 520.132 202.254 C 520.762 204.41 519.52 206.166 517.363 206.166 Z " fill="rgb(58,74,206)"/><path d=" M 516.726 204.245 C 516.578 204.234 516.42 204.169 516.287 204.061 L 514.094 202.305 C 513.799 202.063 513.695 201.688 513.868 201.461 C 514.037 201.234 514.418 201.241 514.714 201.479 L 516.262 202.723 L 517.057 200.884 C 517.172 200.618 517.529 200.56 517.849 200.751 C 518.173 200.942 518.339 201.317 518.224 201.584 L 517.18 203.999 C 517.118 204.144 516.982 204.234 516.812 204.245 L 516.726 204.245 Z " fill="rgb(58,74,206)"/><path d=" M 504.112 199.053 C 502.348 199.053 501.336 200.488 501.847 202.254 C 502.362 204.017 504.212 205.452 505.976 205.452 C 507.737 205.452 508.752 204.017 508.237 202.254 C 507.722 200.488 505.872 199.053 504.112 199.053 Z  M 506.185 206.166 C 504.029 206.166 501.764 204.41 501.134 202.254 C 500.508 200.095 501.746 198.339 503.903 198.339 C 506.056 198.339 508.32 200.095 508.95 202.254 C 509.58 204.41 508.338 206.166 506.185 206.166 Z " fill="rgb(58,74,206)"/><path d=" M 505.544 204.245 C 505.397 204.234 505.238 204.169 505.105 204.061 L 502.913 202.305 C 502.618 202.063 502.517 201.688 502.686 201.461 C 502.859 201.234 503.237 201.241 503.532 201.479 L 505.084 202.723 L 505.876 200.884 C 505.991 200.618 506.347 200.56 506.668 200.751 C 506.992 200.942 507.157 201.317 507.042 201.584 L 505.998 203.999 C 505.937 204.144 505.804 204.234 505.631 204.245 L 505.544 204.245 Z " fill="rgb(58,74,206)"/><path d=" M 492.53 199.053 C 490.766 199.053 489.751 200.488 490.266 202.254 C 490.781 204.017 492.631 205.452 494.392 205.452 C 496.156 205.452 497.171 204.017 496.656 202.254 C 496.141 200.488 494.291 199.053 492.53 199.053 Z  M 494.6 206.166 C 492.448 206.166 490.183 204.41 489.553 202.254 C 488.923 200.095 490.165 198.339 492.322 198.339 C 494.474 198.339 496.739 200.095 497.369 202.254 C 497.999 204.41 496.757 206.166 494.6 206.166 Z " fill="rgb(58,74,206)"/><path d=" M 493.963 204.245 C 493.816 204.234 493.657 204.169 493.524 204.061 L 491.332 202.305 C 491.036 202.063 490.936 201.688 491.105 201.461 C 491.278 201.234 491.656 201.241 491.951 201.479 L 493.499 202.723 L 494.294 200.884 C 494.41 200.618 494.762 200.56 495.086 200.751 C 495.407 200.942 495.576 201.317 495.461 201.584 L 494.417 203.999 C 494.356 204.144 494.219 204.234 494.046 204.245 L 493.963 204.245 Z " fill="rgb(58,74,206)"/><path d=" M 526.079 199.053 C 524.318 199.053 523.303 200.488 523.818 202.254 C 524.333 204.017 526.183 205.452 527.944 205.452 C 529.704 205.452 530.719 204.017 530.204 202.254 C 529.693 200.488 527.839 199.053 526.079 199.053 Z  M 528.152 206.166 C 525.996 206.166 523.732 204.41 523.105 202.254 C 522.475 200.095 523.717 198.339 525.87 198.339 C 528.026 198.339 530.291 200.095 530.921 202.254 C 531.547 204.41 530.305 206.166 528.152 206.166 Z " fill="rgb(58,74,206)"/><path d=" M 527.198 202.893 L 527.198 202.893 C 526.892 202.893 526.572 202.644 526.486 202.341 L 526 200.679 C 525.91 200.373 526.086 200.124 526.392 200.124 C 526.694 200.124 527.015 200.373 527.105 200.679 L 527.591 202.341 C 527.677 202.644 527.501 202.893 527.198 202.893 Z " fill="rgb(58,74,206)"/><path d=" M 527.638 204.198 L 527.519 204.198 C 527.249 204.198 526.961 203.978 526.882 203.704 C 526.802 203.433 526.961 203.21 527.231 203.21 L 527.35 203.21 C 527.623 203.21 527.908 203.433 527.987 203.704 C 528.066 203.978 527.908 204.198 527.638 204.198 Z " fill="rgb(58,74,206)"/><path d=" M 151.794 314.573 C 151.794 314.573 157.687 316.087 161.431 314.959 C 165.175 313.83 171.619 315.683 172.656 317.053 C 173.696 318.42 173.315 318.964 171.461 319.433 C 169.61 319.905 163.048 322.71 158.735 321.088 C 154.426 319.465 148.799 319.404 148.799 319.404 L 151.794 314.573 Z " fill="rgb(252,148,144)"/><path d=" M 100.883 263.328 C 100.883 263.328 107.503 310.427 118.458 314.649 C 123.865 316.729 147.762 321.448 154.829 321.92 C 154.829 321.92 156.56 320.514 156.139 314.789 C 156.139 314.789 131.105 305.585 127.548 300.577 C 122.256 293.129 130.835 270.145 124.193 263.147 C 117.551 256.15 106.362 253.143 100.883 263.328 Z " fill="rgb(74,117,203)"/><path d=" M 101.884 450.077 L 110.725 450.077 C 110.812 450.077 110.88 450.004 110.88 449.922 L 110.88 370.025 C 110.88 369.939 110.812 369.87 110.725 369.87 L 101.884 369.87 C 101.801 369.87 101.729 369.939 101.729 370.025 L 101.729 449.922 C 101.729 450.004 101.801 450.077 101.884 450.077 Z " fill="rgb(58,74,206)"/><path d=" M 78.066 455.347 C 81.025 449.211 92.545 444.636 106.304 444.636 C 120.064 444.636 131.584 449.211 134.546 455.347 L 78.066 455.347 Z " fill="rgb(58,74,206)"/><path d=" M 84.848 434.541 L 127.764 434.541 L 127.818 434.487 L 127.818 431.365 L 127.764 431.311 L 84.848 431.311 L 84.794 431.365 L 84.794 434.487 L 84.848 434.541 Z " fill="rgb(58,74,206)"/><path d=" M 103.115 362.559 C 105.044 365.84 107.276 368.911 109.58 371.821 C 116.69 380.812 124.434 388.228 125.78 395.237 C 126.05 396.632 126.475 398.136 127.033 399.722 C 127.595 401.326 128.29 403.013 129.096 404.758 C 132.113 411.324 136.627 418.682 141.134 425.37 C 148.925 436.928 156.247 446.576 156.247 446.576 L 169.682 446.003 C 169.142 444.654 163.285 428.69 155.448 409.186 C 152.266 401.269 148.878 392.843 145.613 384.72 C 145.181 383.635 144.745 382.557 144.313 381.486 C 143.316 378.999 142.333 376.554 141.372 374.171 C 134.014 355.853 128.153 341.27 128.153 341.27 C 128.153 341.27 98.737 330.111 95.681 337.34 C 93.164 343.303 95.213 349.144 103.115 362.559 Z " fill="rgb(22,53,96)"/><path d=" M 156.668 444.128 C 156.668 444.128 157.356 455.228 159.502 455.391 C 159.786 455.412 170.377 455.412 170.377 455.412 L 183.899 455.333 C 183.899 455.333 183.812 452.07 179.86 451.378 C 175.907 450.689 169.29 447.906 166.896 442.675 C 164.376 437.173 156.668 444.128 156.668 444.128 Z " fill="rgb(22,53,96)"/><path d=" M 125.561 412.412 C 125.561 412.412 116.219 418.426 117.122 420.38 C 117.245 420.64 122.407 429.902 122.407 429.902 L 129.067 441.687 C 129.067 441.687 131.872 440.018 130.543 436.225 C 129.218 432.432 128.419 425.294 131.814 420.65 C 135.385 415.765 125.561 412.412 125.561 412.412 Z " fill="rgb(22,53,96)"/><path d=" M 138.719 336.305 C 138.719 336.305 175.126 359.008 179.248 374.485 C 183.37 389.962 130.133 422.983 130.133 422.983 C 130.133 422.983 124.294 417.824 123.264 414.038 C 123.264 414.038 147.326 385.167 152.546 378.696 C 155.754 374.719 105.145 364.935 98.964 355.305 C 92.783 345.675 94.993 337.571 94.993 337.571 L 138.719 336.305 Z " fill="rgb(28,70,138)"/><path d=" M 66.125 386.188 L 146.484 386.188 C 146.678 386.188 146.837 386.029 146.837 385.838 L 146.837 365.901 C 146.837 365.706 146.678 365.548 146.484 365.548 L 66.125 365.548 C 65.934 365.548 65.776 365.706 65.776 365.901 L 65.776 385.838 C 65.776 386.029 65.934 386.188 66.125 386.188 Z " fill="rgb(251,115,105)"/><path d=" M 121.129 255.252 C 124.758 257.502 126.756 260.357 126.756 260.357 C 117.911 262.65 103.248 254.441 103.248 254.441 C 103.248 254.441 108.94 250.608 111.049 242.19 C 111.157 241.768 111.254 241.332 111.337 240.885 C 111.614 239.468 111.787 237.932 111.816 236.277 L 115.88 239.922 L 122.638 245.983 C 122.638 245.983 122.483 248.499 121.64 252.825 C 121.493 253.579 121.324 254.39 121.129 255.252 Z " fill="rgb(252,148,144)"/><path d=" M 93.881 297.076 C 95.148 314.144 93.481 340.098 94.918 344.594 C 96.16 348.469 110.293 346.166 115.934 344.871 C 118.022 344.392 120.55 343.707 123.163 342.899 C 130.45 340.639 138.388 337.412 139.241 335.018 C 139.273 334.921 139.302 334.831 139.32 334.741 C 139.396 334.395 139.381 334.066 139.302 333.738 C 139.021 332.516 137.927 331.197 137.797 328.172 C 137.653 324.797 137.675 320.824 137.549 316.548 C 137.542 316.069 137.534 315.543 137.48 315.063 L 137.48 314.89 C 137.477 314.796 137.477 314.706 137.473 314.616 C 137.351 309.85 137.102 304.839 136.814 299.867 C 136.631 296.748 136.418 293.655 136.174 290.695 C 135.536 283.048 134.683 276.252 133.549 271.955 C 131.695 264.946 127.613 260.378 123.894 257.029 L 121.205 254.718 C 118.206 255.378 114.656 254.942 111.449 253.417 C 107.975 251.766 106.776 250.583 106.171 251.03 C 98.15 257.228 92.383 276.216 93.881 297.076 Z " fill="rgb(115,154,240)"/><path d=" M 123.163 342.899 C 130.45 340.639 138.388 337.412 139.241 335.018 C 139.273 334.921 139.302 334.831 139.32 334.741 C 139.313 334.405 139.309 334.074 139.302 333.738 C 139.021 332.516 137.927 331.197 137.797 328.172 C 137.653 324.797 137.675 320.824 137.549 316.548 C 137.542 316.069 137.534 315.543 137.48 315.063 L 137.48 314.89 C 137.477 314.796 137.477 314.706 137.473 314.616 L 109.951 302.117 C 109.951 302.117 108.364 324.329 123.163 342.899 Z " fill="rgb(74,117,203)"/><path d=" M 122.638 245.983 C 122.638 245.983 122.483 248.499 121.64 252.825 C 115.042 250.691 112.05 244.724 111.049 242.19 C 110.765 241.476 110.642 241.033 110.642 241.033 C 110.642 241.033 110.898 240.979 111.337 240.885 C 112.266 240.687 114.012 240.319 115.88 239.922 L 122.638 245.983 Z " fill="rgb(255,133,133)"/><path d=" M 125.309 245.918 C 125.309 245.918 110.815 247.555 109.933 238.498 C 109.055 229.442 106.592 223.554 115.808 222.127 C 125.028 220.699 127.163 223.98 128.192 226.929 C 129.218 229.882 129.056 245.258 125.309 245.918 Z " fill="rgb(252,148,144)"/><path d=" M 109.998 239.122 C 109.998 239.122 110.916 227.102 124.11 225.858 C 133.15 225.004 128.11 217.216 127.145 215.972 C 127.145 215.972 120.222 216.924 113.123 218.1 C 98.226 220.562 108.533 237.251 109.998 239.122 Z " fill="rgb(58,74,206)"/><path d=" M 180.158 326.376 L 181.429 326.791 L 192.226 293.518 L 190.955 293.103 L 180.158 326.376 Z " fill="rgb(74,117,203)"/><path d=" M 144.824 323.809 L 181.476 324.595 L 181.429 326.791 L 144.778 326.005 L 144.824 323.809 Z " fill="rgb(74,117,203)"/><path d=" M 148.763 321.816 C 148.763 321.816 154.451 323.972 158.296 323.261 C 162.144 322.551 168.343 325.107 169.225 326.582 C 170.107 328.053 169.668 328.554 167.774 328.817 C 165.884 329.08 159.052 331.143 154.944 329.055 C 150.836 326.968 145.253 326.286 145.253 326.286 L 148.763 321.816 Z " fill="rgb(252,148,144)"/><path d=" M 103.806 265.26 C 103.806 265.26 105.196 312.806 115.621 318.207 C 120.769 320.875 143.996 328.201 150.97 329.452 C 150.97 329.452 152.845 328.248 153.058 322.508 C 153.058 322.508 129.19 310.596 126.205 305.228 C 121.763 297.239 132.822 275.344 126.99 267.654 C 121.158 259.967 110.372 255.742 103.806 265.26 Z " fill="rgb(115,154,240)"/><path d=" M 499.914 453.88 C 499.914 453.88 500.447 449.727 501.678 447.257 C 502.909 444.788 510.757 446.36 510.757 446.36 C 510.757 446.36 512.323 447.708 512.662 453.992 L 499.914 453.88 Z " fill="rgb(41,62,183)"/><path d=" M 473.188 453.822 C 475.031 452.698 473.98 444.29 473.98 444.29 C 473.98 444.29 465.39 437.411 464.209 442.679 C 463.028 447.946 456.052 450.311 452.081 450.956 C 449.338 451.403 448.488 452.925 448.225 453.822 L 473.188 453.822 Z " fill="rgb(41,62,183)"/><path d=" M 490.979 392.688 C 490.626 394.617 490.406 396.2 490.349 397.335 C 489.55 412.932 477.238 448.595 475.034 449.424 C 471.629 450.715 466.261 447.975 463.453 447.081 C 462.29 446.709 461.506 445.534 461.765 444.341 C 467.863 416.274 470.102 375.851 470.92 351.923 C 471.33 339.867 473.396 331.543 473.396 331.543 C 473.396 331.543 503.424 323.517 503.6 333.67 C 503.759 342.651 493.654 377.874 490.979 392.688 Z " fill="rgb(33,63,122)"/><path d=" M 490.979 392.688 L 470.92 351.923 C 471.33 339.867 473.396 331.543 473.396 331.543 C 473.396 331.543 503.424 323.517 503.6 333.67 C 503.759 342.651 493.654 377.874 490.979 392.688 Z " fill="rgb(41,62,183)"/><path d=" M 484.297 333.706 L 500.17 448.919 C 500.17 448.919 507.139 450.603 512.564 449.258 C 512.564 449.258 517.208 387.98 516.823 373.166 C 516.434 358.351 520.157 333.526 515.974 330.786 C 511.787 328.049 484.297 333.706 484.297 333.706 Z " fill="rgb(33,63,122)"/><path d=" M 517.09 304.121 L 519.066 331.784 C 519.145 332.826 518.479 333.771 517.478 334.063 C 515.264 334.708 512.708 335.155 507.787 336.176 C 503.161 337.138 496.94 337.989 489.294 338.036 C 477.137 338.115 472.532 333.919 472.532 333.919 C 472.01 333.926 472.81 331.377 473.53 319.263 C 473.774 315.157 474.012 309.954 474.181 303.378 C 474.332 297.462 474.437 290.432 474.448 282.093 C 474.458 272.06 489.964 261.269 490.252 261.269 L 490.255 261.273 C 490.255 262.718 492.527 265.383 496.03 265.613 C 500.184 265.884 505.282 263.814 505.282 261.417 C 505.282 261.392 512.795 273.451 515.462 286.3 C 515.801 287.93 516.064 289.65 516.272 291.456 L 516.283 291.539 C 516.319 291.87 516.355 292.202 516.391 292.537 C 516.398 292.595 516.402 292.656 516.409 292.714 C 516.438 293.017 516.47 293.327 516.496 293.633 C 516.506 293.724 516.51 293.814 516.521 293.9 C 516.546 294.185 516.571 294.466 516.593 294.751 L 516.6 294.83 C 516.618 295.043 516.632 295.256 516.647 295.469 C 516.658 295.62 516.668 295.775 516.679 295.926 C 516.701 296.179 516.715 296.428 516.733 296.68 C 516.74 296.806 516.748 296.932 516.758 297.062 C 516.773 297.3 516.787 297.542 516.802 297.787 C 516.809 297.895 516.812 298.003 516.82 298.111 C 516.841 298.461 516.859 298.814 516.877 299.168 L 516.881 299.254 C 516.899 299.597 516.917 299.943 516.931 300.289 C 516.935 300.375 516.938 300.458 516.942 300.545 C 516.96 300.869 516.974 301.197 516.985 301.525 C 516.989 301.576 516.992 301.623 516.992 301.673 C 517.028 302.477 517.057 303.296 517.09 304.121 L 517.093 304.186 L 517.09 304.121 Z " fill="rgb(58,74,206)"/><path d=" M 490.252 261.269 C 490.252 261.269 475.834 261.146 472.363 266.021 C 468.893 270.895 461.286 297.109 465.257 305.834 C 469.228 314.558 476.654 302.225 480.776 296.882 C 484.902 291.539 490.252 261.269 490.252 261.269 Z " fill="rgb(58,74,206)"/><path d=" M 490.104 259.066 L 490.111 260.559 C 490.111 260.559 489.704 265.228 495.446 265.909 C 501.185 266.59 505.534 264.088 505.379 260.487 C 504.86 257.696 504.292 255.782 504.256 253.474 C 504.241 252.616 504.299 251.704 504.457 250.677 L 493.337 250.457 L 490.061 250.99 L 490.104 259.066 Z " fill="rgb(252,148,144)"/><path d=" M 490.061 250.99 L 490.104 259.066 C 491.285 259.614 492.617 259.953 494.114 259.953 C 499.223 259.953 502.528 256.196 504.256 253.474 C 504.241 252.616 504.299 251.704 504.457 250.677 L 493.337 250.457 L 490.061 250.99 Z " fill="rgb(255,133,133)"/><path d=" M 505.31 248.885 C 504.022 255.839 495.061 255.612 491.188 255.176 C 490.097 255.054 489.413 254.913 489.413 254.913 C 488.182 254.585 487.498 252.649 487.177 250.107 C 486.547 245.085 487.346 237.709 488.192 235.819 C 489.467 232.982 491.872 229.914 500.897 232.128 C 509.922 234.345 506.966 239.976 505.31 248.885 Z " fill="rgb(252,148,144)"/><path d=" M 475.506 280.806 C 475.506 280.806 469.933 293.14 470.095 296.835 C 470.095 296.835 472.856 296.741 475.506 297.534 C 479.866 298.836 475.506 280.806 475.506 280.806 Z " fill="rgb(41,62,183)"/><path d=" M 485.424 229.2 C 485.424 229.2 489.395 228.894 494.082 226.857 C 497.884 225.198 502.682 227.023 504.238 227.845 C 504.194 227.592 504.094 227.25 503.856 226.907 C 503.856 226.907 504.558 227.405 504.659 228.097 C 504.731 228.151 504.763 228.187 504.745 228.198 C 504.745 228.198 505.537 228.054 506.048 228.284 C 506.048 228.284 505.692 228.234 505.562 228.461 L 505.508 228.526 C 511.438 231.396 511.985 240.784 510.077 242.954 C 507.78 245.568 505.026 251.455 505.026 251.455 C 505.026 251.455 504.022 250.064 504.439 247.764 C 504.857 245.464 502.873 245.464 500.371 244.418 C 497.866 243.372 499.95 240.445 497.761 238.671 C 495.569 236.894 487.53 237.939 487.634 236.58 C 484.65 235.491 485.424 229.507 485.424 229.2 Z " fill="rgb(41,62,183)"/><path d=" M 507.128 303.908 C 504.774 313.376 479.318 318.268 473.53 319.263 C 473.774 315.157 474.012 309.954 474.181 303.378 L 507.128 303.908 Z " fill="rgb(41,62,183)"/><path d=" M 501.541 306.987 C 501.782 306.987 507.2 306.176 508.169 305.689 C 509.141 305.203 513.576 298.89 510.671 297.271 C 507.766 295.652 499.964 302.127 499.964 302.127 L 501.541 306.987 Z " fill="rgb(252,148,144)"/><path d=" M 468.594 308.862 C 468.594 308.862 489.542 310.001 503.604 306.987 C 503.604 306.987 503.957 302.917 499.54 301.111 C 499.54 301.111 477.626 296.46 472.363 297.754 C 467.1 299.052 468.594 308.862 468.594 308.862 Z " fill="rgb(58,74,206)"/><path d=" M 516.704 292.397 C 512.356 297.646 506.675 301.933 500.407 302.939 L 500.407 302.935 C 500.357 302.856 498.51 300.051 498.856 295.93 C 499.018 294.023 499.644 291.831 501.138 289.498 C 501.599 288.781 502.006 287.941 502.369 287.011 C 505.793 278.268 505.282 261.417 505.282 261.417 C 505.282 261.417 519.811 262.942 524.34 269.417 C 527.112 273.386 523.577 284.098 516.704 292.397 Z " fill="rgb(58,74,206)"/><path d=" M 491.188 255.176 C 490.097 255.054 489.413 254.913 489.413 254.913 C 488.182 254.585 487.498 252.649 487.177 250.107 C 489.481 250.677 490.54 252.458 490.979 253.218 C 491.177 253.561 491.216 254.325 491.188 255.176 Z " fill="rgb(255,133,133)"/><path d=" M 485.334 259.109 C 485.334 259.109 480.316 250.817 484.218 250.457 C 488.12 250.096 489.686 252.739 490.252 253.712 C 490.813 254.682 490.104 259.066 490.104 259.066 L 485.334 259.109 Z " fill="rgb(252,148,144)"/><path d=" M 504.457 295.652 C 504.306 296.702 503.993 297.668 503.604 298.529 C 502.376 301.255 500.407 302.939 500.407 302.939 L 500.407 302.935 C 487.375 297.044 484.736 276.815 484.297 265.7 C 484.117 261.233 484.297 258.237 484.297 258.237 C 490.176 256.287 491.828 259.675 491.828 259.675 C 491.828 259.675 498.769 276.206 502.369 287.011 C 503.748 291.146 504.634 294.441 504.457 295.652 Z " fill="rgb(58,74,206)"/><path d=" M 516.704 292.397 C 512.356 297.646 506.675 301.933 500.407 302.939 L 500.407 302.935 C 487.375 297.044 484.736 276.815 484.297 265.7 C 484.297 265.7 490.464 288.099 498.856 295.93 C 500.371 297.347 501.962 298.284 503.604 298.529 C 503.604 298.529 514.188 295.533 516.409 292.714 C 516.568 292.512 516.665 292.411 516.704 292.397 Z " fill="rgb(41,62,183)"/><path d=" M 899.96 456 L 0.04 456 L 0 455.96 L 0 453.649 L 0.04 453.61 L 899.96 453.61 L 900 453.649 L 900 455.96 L 899.96 456 Z " fill="rgb(46,53,82)"/><path d=" M 731.61 434.916 C 734.152 444.427 752.929 450.026 773.471 453.31 L 850.122 453.31 C 868.597 444.25 868.572 433.449 870.052 403.612 C 873.115 341.991 840.748 312.244 826.312 317.154 C 825.714 317.36 825.102 317.58 824.479 317.836 C 820.285 319.523 815.587 322.508 811.015 329.61 C 811.015 329.61 796.669 353.556 784.865 367.841 C 781.063 372.437 777.524 376.039 774.817 377.513 C 774.788 377.531 774.756 377.55 774.72 377.56 C 774.576 377.64 774.436 377.705 774.299 377.769 C 768.042 380.636 759.226 386.649 751.172 394.231 L 751.169 394.231 C 738.68 405.988 728.028 421.505 731.61 434.916 Z " fill="rgb(251,115,105)"/><path d=" M 751.172 394.231 C 761.918 397.537 817.232 413.53 830.25 396.574 C 839.675 384.295 833.807 352.835 828.601 332.484 C 826.466 324.141 815.814 322.245 811.156 329.401 C 811.109 329.47 811.062 329.542 811.015 329.61 C 811.015 329.61 796.669 353.556 784.865 367.841 C 781.448 372.351 778.079 375.83 774.817 377.513 C 774.788 377.531 774.756 377.55 774.72 377.56 C 774.58 377.64 774.436 377.705 774.299 377.769 C 768.042 380.636 759.226 386.649 751.172 394.231 Z " fill="rgb(242,86,75)"/><path d=" M 792.317 316.498 C 792.317 316.498 788.483 322.176 786.298 334.117 C 784.382 344.576 782.705 348.437 779.94 350.582 C 777.172 352.727 761.767 359.058 761.767 359.058 L 762.919 361.762 C 762.919 361.762 785.498 358.683 788.036 354.901 C 790.571 351.123 800.24 328.796 799.492 323.651 C 798.739 318.51 792.317 316.498 792.317 316.498 Z " fill="rgb(252,148,144)"/><path d=" M 737.024 441.244 C 737.226 443.446 734.159 443.984 730.609 444.16 C 727.06 444.337 728.132 445.065 723.265 445.949 C 718.398 446.832 716.45 445.498 716.098 444.838 C 715.784 444.254 718.045 443.342 720.457 442.307 C 720.76 442.181 721.066 442.048 721.368 441.914 C 724.082 440.721 725.605 438.28 727.718 436.023 C 729.724 433.882 731.628 427.028 731.628 427.028 L 738.238 425.615 C 738.238 425.615 736.384 431.783 735.736 434.415 C 735.358 435.966 735.919 437.696 736.416 439.012 C 736.682 439.729 736.952 440.465 737.024 441.244 Z " fill="rgb(252,148,144)"/><path d=" M 730.609 444.16 C 727.06 444.337 728.132 445.065 723.265 445.949 C 718.398 446.832 716.45 445.498 716.098 444.838 C 715.784 444.254 718.045 443.342 720.457 442.307 L 720.493 442.35 C 720.493 442.35 723.917 443.515 727.866 442.437 C 731.084 441.565 734.198 439.636 736.416 439.012 C 736.682 439.729 736.952 440.465 737.024 441.244 C 737.226 443.446 734.159 443.984 730.609 444.16 Z " fill="rgb(251,115,105)"/><path d=" M 802.872 362.71 C 802.872 362.71 758.93 359.401 750.658 364.628 C 742.385 369.856 729.119 430.76 729.119 430.76 C 729.119 430.76 729.936 431.416 731.765 431.614 C 733.468 431.798 737.212 430.799 737.212 430.799 C 737.212 430.799 756.281 403.547 757.624 396.683 C 758.966 389.818 758.639 383.693 761.699 383.527 C 764.755 383.365 802.879 388.171 808.646 377.997 C 814.41 367.823 809.644 357.749 809.644 357.749 L 802.872 362.71 Z " fill="rgb(22,53,96)"/><path d=" M 753.836 448.31 C 754.042 450.516 750.974 451.054 747.425 451.23 C 743.872 451.407 744.944 452.135 740.081 453.018 C 735.214 453.898 733.262 452.568 732.91 451.908 C 732.596 451.324 734.861 450.408 737.269 449.377 C 737.575 449.247 737.878 449.114 738.18 448.981 C 740.894 447.787 742.417 445.35 744.534 443.09 C 746.539 440.952 748.44 434.098 748.44 434.098 L 755.053 432.681 C 755.053 432.681 753.196 438.85 752.551 441.485 C 752.173 443.032 752.731 444.762 753.228 446.082 C 753.498 446.799 753.768 447.531 753.836 448.31 Z " fill="rgb(252,148,144)"/><path d=" M 747.425 451.23 C 743.872 451.407 744.944 452.135 740.081 453.018 C 735.214 453.898 733.262 452.568 732.91 451.908 C 732.596 451.324 734.861 450.408 737.269 449.377 L 737.309 449.417 C 737.309 449.417 740.729 450.581 744.678 449.507 C 747.9 448.631 751.01 446.706 753.228 446.082 C 753.498 446.799 753.768 447.531 753.836 448.31 C 754.042 450.516 750.974 451.054 747.425 451.23 Z " fill="rgb(251,115,105)"/><path d=" M 811.48 365.439 C 811.48 365.439 772.445 367.289 764.381 372.837 C 756.317 378.382 745.427 439.755 745.427 439.755 C 745.427 439.755 746.273 440.382 748.105 440.508 C 749.812 440.627 753.516 439.481 753.516 439.481 C 753.516 439.481 771.512 411.507 772.585 404.596 C 773.662 397.681 773.096 391.574 776.146 391.293 C 779.195 391.008 817.477 394.325 822.845 383.934 C 828.209 373.54 811.48 365.439 811.48 365.439 Z " fill="rgb(28,70,138)"/><path d=" M 798.116 313.369 C 797.357 312.038 796.453 309.644 795.798 305.314 C 795.884 305.744 796.997 311.184 799.315 314.155 C 808.355 319.27 826.225 337.178 826.135 340.805 C 826.135 340.805 831.323 330.479 831.42 330.414 C 831.42 330.414 841.295 315.957 827.986 308.941 C 821.218 305.376 820.912 300.238 820.886 295.764 C 820.861 291.283 817.538 272.225 804.856 278.12 C 804.856 278.12 802.703 277.327 801.778 277.529 C 801.778 277.529 802.552 277.626 802.966 278.001 C 801.454 278.012 799.301 278.268 797.569 279.414 C 792.979 282.446 790.33 307.099 798.116 313.369 Z " fill="rgb(44,58,100)"/><path d=" M 813.121 309.954 C 813.121 309.954 809.485 309.608 805.849 309.954 C 803.38 310.189 800.932 310.957 799.542 311.541 C 796.1 312.979 796.46 319.079 803.682 317.951 C 810.9 316.819 813.625 311.764 813.121 309.954 Z " fill="rgb(252,148,144)"/><path d=" M 799.844 314.403 C 799.805 314.425 798.815 319.649 803.542 319.44 C 806.645 319.303 813.337 315.543 812.747 312.882 C 812.466 311.62 810.122 308.336 809.651 300.848 L 809.086 300.999 L 799.589 303.548 C 799.589 303.548 800.01 306.569 800.204 309.424 C 800.37 311.826 800.377 314.111 799.844 314.403 Z " fill="rgb(252,148,144)"/><path d=" M 799.589 303.548 C 799.589 303.548 800.01 306.569 800.204 309.424 C 805.579 308.913 808.099 303.804 809.086 300.999 L 799.589 303.548 Z " fill="rgb(244,162,105)"/><path d=" M 810.007 299.881 C 810.007 299.881 812.534 295.227 812.956 291.366 C 813.258 288.604 811.199 278.592 801.155 280.723 C 801.155 280.723 798.232 281.21 795.586 283.268 C 793.483 284.905 790.52 288.334 794.66 296.914 L 795.78 299.831 L 810.007 299.881 Z " fill="rgb(44,58,100)"/><path d=" M 797.969 306.374 C 797.969 306.374 810.724 305.736 810.205 297.787 C 809.683 289.837 810.979 284.4 802.814 284.472 C 794.646 284.545 793.264 287.681 792.796 290.378 C 792.324 293.075 794.635 306.338 797.969 306.374 Z " fill="rgb(252,148,144)"/><path d=" M 796.997 284.664 C 796.997 284.664 801.108 293.756 806.551 294.78 C 811.998 295.8 814.226 294.207 814.226 294.207 C 814.226 294.207 809.903 291.214 808.668 285.568 C 808.668 285.568 799.333 280.049 796.997 284.664 Z " fill="rgb(44,58,100)"/><path d=" M 797.911 285.363 C 797.911 285.363 795.445 287.62 794.945 289.686 C 794.444 291.751 794.437 295.941 793.213 295.879 C 793.213 295.879 790.164 289.715 792.878 285.933 C 795.758 281.92 797.911 285.363 797.911 285.363 Z " fill="rgb(44,58,100)"/><path d=" M 785.203 363.377 C 786.236 364.61 789.458 364.992 792.904 365.558 C 795.614 366.005 798.466 366.568 800.489 367.761 C 805.086 370.465 820.112 379.601 824.515 379.186 C 826.222 379.024 825.905 375.761 824.868 371.431 C 823.241 364.592 819.835 355.092 819.835 350.964 C 819.835 348.711 819.086 343.375 818.086 337.279 C 818.003 336.788 817.92 336.291 817.837 335.79 C 815.861 323.936 813.121 309.954 813.121 309.954 C 813.121 309.954 810.065 316.631 804.11 316.631 C 798.16 316.631 799.542 311.541 799.542 311.541 C 799.542 311.541 794.11 312.179 792.828 313.563 C 791.539 314.948 788.288 320.932 787.64 322.566 C 787.64 322.566 787.511 324.642 792.644 325.63 C 792.644 325.63 791.392 331.269 791.244 335.025 C 791.136 337.801 793.138 346.49 793.714 351.894 C 793.915 353.809 793.944 355.309 793.634 355.99 C 793.235 356.863 791.95 357.731 790.488 358.586 C 787.586 360.277 783.979 361.906 785.203 363.377 Z " fill="rgb(28,70,138)"/><path d=" M 790.488 358.586 C 787.194 364.214 799.427 365.905 801.45 367.094 C 806.051 369.798 820.112 379.601 824.515 379.186 C 826.222 379.024 825.905 375.761 824.868 371.431 C 823.241 364.592 819.835 355.092 819.835 350.964 C 819.835 348.711 819.086 343.375 818.086 337.279 L 812.783 332.181 C 812.783 332.181 807.106 346.883 801.691 349.291 C 798.854 350.553 795.892 351.386 793.714 351.894 C 793.915 353.809 793.944 355.309 793.634 355.99 C 793.235 356.863 791.95 357.731 790.488 358.586 Z " fill="rgb(22,53,96)"/><path d=" M 814.748 314.356 C 814.748 314.356 819.281 311.598 823.662 316.826 C 828.047 322.057 820.548 359.433 814.057 361.351 C 806.843 363.485 786.01 361.012 786.01 361.012 L 786.413 357.749 C 786.413 357.749 808.589 353.492 809.51 352.305 C 810.432 351.119 812.444 314.959 814.748 314.356 Z " fill="rgb(252,148,144)"/><path d=" M 813.121 309.954 C 813.121 309.954 822.427 310.794 825.131 313.859 C 827.834 316.927 828.623 325.234 828.623 325.234 C 828.623 325.234 820.426 331.86 810.551 329.289 L 813.121 309.954 Z " fill="rgb(28,70,138)"/><path d=" M 771.541 364.214 L 783.835 364.214 L 783.835 362.757 L 771.541 362.757 L 771.541 364.214 Z " fill="rgb(158,51,46)"/><path d=" M 774.151 364.012 C 774.032 363.532 762.851 345.949 762.851 345.949 L 737.975 345.949 L 750.452 363.539 L 774.151 364.012 Z " fill="rgb(158,51,46)"/><path d=" M 773.104 364.214 C 772.985 363.731 761.767 345.949 761.767 345.949 L 737.975 345.949 L 749.844 364.214 L 773.104 364.214 Z " fill="rgb(44,58,100)"/><path d=" M 752.13 355.139 C 752.375 355.853 753.149 356.43 753.862 356.43 C 754.571 356.43 754.949 355.853 754.704 355.139 C 754.459 354.429 753.685 353.849 752.972 353.849 C 752.263 353.849 751.885 354.429 752.13 355.139 Z " fill="rgb(158,51,46)"/><path d=" M 788.22 357.555 C 788.22 357.555 780.998 356.156 780.185 356.506 C 779.368 356.855 774.828 360.94 775.292 361.755 C 775.757 362.573 777.622 363.157 779.717 362.454 C 781.816 361.755 786.359 361.405 787.172 360.356 C 787.99 359.307 788.22 357.555 788.22 357.555 Z " fill="rgb(252,148,144)"/><path d=" M 634.252 154.863 L 407.016 154.863 L 389.603 97.749 L 616.835 97.749 L 634.252 154.863 Z " fill="rgb(250,253,255)"/><path d=" M 608.188 117.062 L 610.272 123.894 C 611.186 126.897 609.484 129.356 606.481 129.356 L 418.219 129.356 C 415.22 129.356 412.013 126.897 411.098 123.894 L 409.014 117.062 C 408.1 114.055 409.802 111.597 412.805 111.597 L 601.067 111.597 C 604.066 111.597 607.273 114.055 608.188 117.062 Z " fill="rgb(183,213,249)"/><path d=" M 570.488 118.49 L 567.601 118.49 L 567.331 117.599 L 571.367 117.599 L 571.601 118.364 L 570.528 123.353 L 569.398 123.353 L 570.488 118.49 Z " fill="rgb(105,157,238)"/><path d=" M 576.918 120.476 C 576.572 119.344 575.705 118.414 574.819 118.414 C 573.934 118.414 573.642 119.319 573.995 120.476 C 574.34 121.612 575.197 122.539 576.094 122.539 C 576.986 122.539 577.267 121.626 576.918 120.476 Z  M 572.954 120.476 C 572.45 118.832 573.048 117.502 574.556 117.502 C 576.058 117.502 577.454 118.818 577.958 120.476 C 578.459 122.12 577.865 123.451 576.356 123.451 C 574.844 123.451 573.458 122.138 572.954 120.476 Z " fill="rgb(105,157,238)"/><path d=" M 584.719 121.947 C 584.579 121.489 584.201 121.111 583.834 121.111 C 583.448 121.111 583.333 121.489 583.474 121.947 C 583.618 122.416 583.992 122.787 584.359 122.787 C 584.748 122.787 584.86 122.409 584.719 121.947 Z  M 582.743 121.947 C 582.498 121.15 582.844 120.476 583.657 120.476 C 584.46 120.476 585.205 121.143 585.45 121.947 C 585.695 122.744 585.349 123.418 584.536 123.418 C 583.733 123.418 582.988 122.755 582.743 121.947 Z  M 580.352 119.005 C 580.212 118.547 579.834 118.169 579.467 118.169 C 579.078 118.169 578.966 118.547 579.107 119.005 C 579.247 119.474 579.622 119.845 579.992 119.845 C 580.378 119.845 580.493 119.467 580.352 119.005 Z  M 582.728 117.599 L 583.542 117.599 L 581.094 123.353 L 580.28 123.353 L 582.728 117.599 Z  M 578.376 119.005 C 578.131 118.209 578.477 117.534 579.287 117.534 C 580.093 117.534 580.838 118.201 581.083 119.005 C 581.324 119.802 580.982 120.476 580.169 120.476 C 579.366 120.476 578.621 119.813 578.376 119.005 Z " fill="rgb(105,157,238)"/><path d=" M 540.104 111.597 L 545.519 129.356 L 418.219 129.356 C 415.721 129.356 413.078 127.651 411.739 125.347 C 411.466 124.882 411.25 124.395 411.098 123.894 L 409.014 117.062 C 408.1 114.055 409.802 111.597 412.805 111.597 L 540.104 111.597 Z " fill="rgb(251,115,105)"/><path d=" M 435.337 111.597 L 429.97 129.356 L 418.219 129.356 C 415.721 129.356 413.078 127.651 411.739 125.347 L 415.894 111.597 L 435.337 111.597 Z " fill="rgb(242,86,75)"/><path d=" M 468.652 111.597 L 463.284 129.356 L 443.844 129.356 L 449.212 111.597 L 468.652 111.597 Z " fill="rgb(242,86,75)"/><path d=" M 501.97 111.597 L 496.602 129.356 L 477.158 129.356 L 482.526 111.597 L 501.97 111.597 Z " fill="rgb(242,86,75)"/><path d=" M 535.288 111.597 L 529.92 129.356 L 510.476 129.356 L 515.844 111.597 L 535.288 111.597 Z " fill="rgb(242,86,75)"/><path d=" M 452.747 139.88 L 418.748 139.88 L 418.032 137.529 L 452.03 137.529 L 452.747 139.88 Z " fill="rgb(175,205,251)"/><path d=" M 445.457 146.445 L 420.75 146.445 L 420.034 144.098 L 444.74 144.098 L 445.457 146.445 Z " fill="rgb(175,205,251)"/><path d=" M 461.747 146.445 L 446.98 146.445 L 446.263 144.098 L 461.03 144.098 L 461.747 146.445 Z " fill="rgb(175,205,251)"/><path d=" M 486.857 146.445 L 464.299 146.445 L 463.583 144.098 L 486.14 144.098 L 486.857 146.445 Z " fill="rgb(175,205,251)"/><path d=" M 465.599 139.88 L 455.306 139.88 L 454.59 137.529 L 464.882 137.529 L 465.599 139.88 Z " fill="rgb(175,205,251)"/><path d=" M 506.556 139.88 L 469.123 139.88 L 468.407 137.529 L 505.84 137.529 L 506.556 139.88 Z " fill="rgb(175,205,251)"/><path d=" M 327.535 241.062 L 167.681 241.062 L 142.834 159.572 L 302.688 159.572 L 327.535 241.062 Z " fill="rgb(250,253,255)"/><path d=" M 304.974 200.318 L 165.395 200.318 L 154.836 165.686 L 294.412 165.686 L 304.974 200.318 Z " fill="rgb(74,117,203)"/><path d=" M 188.345 172.724 L 164.7 172.724 L 164.138 170.878 L 187.783 170.878 L 188.345 172.724 Z " fill="rgb(202,224,255)"/><path d=" M 213.635 172.724 L 193.972 172.724 L 193.406 170.878 L 213.07 170.878 L 213.635 172.724 Z " fill="rgb(202,224,255)"/><path d=" M 259.402 172.724 L 218.758 172.724 L 218.196 170.878 L 258.836 170.878 L 259.402 172.724 Z " fill="rgb(202,224,255)"/><path d=" M 190.364 179.343 L 166.72 179.343 L 166.158 177.497 L 189.799 177.497 L 190.364 179.343 Z " fill="rgb(202,224,255)"/><path d=" M 215.654 179.343 L 195.988 179.343 L 195.426 177.497 L 215.089 177.497 L 215.654 179.343 Z " fill="rgb(202,224,255)"/><path d=" M 238.878 179.343 L 219.211 179.343 L 218.65 177.497 L 238.313 177.497 L 238.878 179.343 Z " fill="rgb(202,224,255)"/><path d=" M 285.476 180.115 L 244.832 180.115 L 244.271 178.265 L 284.915 178.265 L 285.476 180.115 Z " fill="rgb(202,224,255)"/><path d=" M 192.92 187.736 L 169.279 187.736 L 168.714 185.89 L 192.359 185.89 L 192.92 187.736 Z " fill="rgb(202,224,255)"/><path d=" M 218.21 187.736 L 198.547 187.736 L 197.986 185.89 L 217.649 185.89 L 218.21 187.736 Z " fill="rgb(202,224,255)"/><path d=" M 263.977 187.736 L 223.337 187.736 L 222.772 185.89 L 263.416 185.89 L 263.977 187.736 Z " fill="rgb(202,224,255)"/><path d=" M 194.94 194.355 L 171.299 194.355 L 170.734 192.509 L 194.378 192.509 L 194.94 194.355 Z " fill="rgb(202,224,255)"/><path d=" M 220.23 194.355 L 200.567 194.355 L 200.002 192.509 L 219.668 192.509 L 220.23 194.355 Z " fill="rgb(202,224,255)"/><path d=" M 243.454 194.355 L 223.79 194.355 L 223.225 192.509 L 242.892 192.509 L 243.454 194.355 Z " fill="rgb(202,224,255)"/><path d=" M 290.056 195.127 L 249.412 195.127 L 248.846 193.277 L 289.49 193.277 L 290.056 195.127 Z " fill="rgb(202,224,255)"/><path d=" M 253.534 211.123 C 249.106 211.123 246.604 214.732 247.957 219.167 C 249.307 223.601 254.012 227.21 258.44 227.21 C 262.868 227.21 265.37 223.601 264.017 219.167 C 262.667 214.732 257.962 211.123 253.534 211.123 Z  M 258.988 229.006 C 253.57 229.006 247.817 224.593 246.161 219.167 C 244.508 213.741 247.568 209.328 252.986 209.328 C 258.404 209.328 264.157 213.741 265.813 219.167 C 267.466 224.593 264.406 229.006 258.988 229.006 Z " fill="rgb(58,74,206)"/><path d=" M 257.314 224.171 C 256.939 224.146 256.547 223.983 256.208 223.713 L 250.636 219.293 C 249.883 218.694 249.613 217.746 250.034 217.177 C 250.459 216.603 251.41 216.625 252.166 217.224 L 256.1 220.346 L 258.037 215.724 C 258.318 215.053 259.207 214.905 260.024 215.388 C 260.838 215.875 261.274 216.809 260.993 217.479 L 258.451 223.558 C 258.3 223.918 257.962 224.142 257.53 224.174 C 257.458 224.178 257.386 224.178 257.314 224.171 Z " fill="rgb(58,74,206)"/><path d=" M 225.421 211.123 C 220.993 211.123 218.491 214.732 219.841 219.167 C 221.195 223.601 225.896 227.21 230.324 227.21 C 234.756 227.21 237.258 223.601 235.904 219.167 C 234.551 214.732 229.849 211.123 225.421 211.123 Z  M 230.875 229.006 C 225.457 229.006 219.701 224.593 218.048 219.167 C 216.392 213.741 219.456 209.328 224.874 209.328 C 230.292 209.328 236.045 213.741 237.697 219.167 C 239.353 224.593 236.293 229.006 230.875 229.006 Z " fill="rgb(58,74,206)"/><path d=" M 229.201 224.171 C 228.827 224.146 228.431 223.983 228.092 223.713 L 222.52 219.293 C 221.767 218.694 221.501 217.746 221.922 217.177 C 222.343 216.603 223.297 216.625 224.05 217.224 L 227.988 220.346 L 229.921 215.724 C 230.202 215.053 231.091 214.905 231.908 215.388 C 232.726 215.875 233.161 216.809 232.88 217.479 L 230.335 223.558 C 230.184 223.918 229.849 224.142 229.414 224.174 C 229.345 224.178 229.273 224.178 229.201 224.171 Z " fill="rgb(58,74,206)"/><path d=" M 196.301 211.123 C 191.873 211.123 189.367 214.732 190.721 219.167 C 192.074 223.601 196.776 227.21 201.204 227.21 C 205.632 227.21 208.138 223.601 206.784 219.167 C 205.43 214.732 200.729 211.123 196.301 211.123 Z  M 201.751 229.006 C 196.337 229.006 190.58 224.593 188.928 219.167 C 187.272 213.741 190.336 209.328 195.754 209.328 C 201.168 209.328 206.924 213.741 208.577 219.167 C 210.233 224.593 207.169 229.006 201.751 229.006 Z " fill="rgb(58,74,206)"/><path d=" M 200.081 224.171 C 199.706 224.146 199.31 223.983 198.972 223.713 L 193.399 219.293 C 192.647 218.694 192.377 217.746 192.802 217.177 C 193.223 216.603 194.177 216.625 194.929 217.224 L 198.868 220.346 L 200.801 215.724 C 201.082 215.053 201.971 214.905 202.788 215.388 C 203.605 215.875 204.041 216.809 203.76 217.479 L 201.215 223.558 C 201.064 223.918 200.729 224.142 200.293 224.174 C 200.225 224.178 200.153 224.178 200.081 224.171 Z " fill="rgb(58,74,206)"/><path d=" M 280.66 211.123 C 276.232 211.123 273.726 214.732 275.08 219.167 C 276.433 223.601 281.135 227.21 285.563 227.21 C 289.991 227.21 292.493 223.601 291.143 219.167 C 289.789 214.732 285.088 211.123 280.66 211.123 Z  M 286.11 229.006 C 280.692 229.006 274.939 224.593 273.287 219.167 C 271.631 213.741 274.694 209.328 280.112 209.328 C 285.527 209.328 291.283 213.741 292.936 219.167 C 294.592 224.593 291.528 229.006 286.11 229.006 Z " fill="rgb(58,74,206)"/><path d=" M 283.601 220.778 L 283.601 220.778 C 282.838 220.778 282.02 220.151 281.786 219.387 L 280.512 215.205 C 280.282 214.44 280.714 213.813 281.477 213.813 C 282.244 213.813 283.061 214.44 283.291 215.205 L 284.566 219.387 C 284.8 220.151 284.368 220.778 283.601 220.778 Z " fill="rgb(58,74,206)"/><path d=" M 284.753 224.059 L 284.454 224.059 C 283.77 224.059 283.043 223.5 282.834 222.815 C 282.625 222.134 283.014 221.575 283.694 221.575 L 283.997 221.575 C 284.677 221.575 285.404 222.134 285.613 222.815 C 285.822 223.5 285.433 224.059 284.753 224.059 Z " fill="rgb(58,74,206)"/><path d=" M 668.117 224.834 C 668.117 224.834 688.334 245.828 689.292 253.73 C 690.246 261.633 679.604 273.967 679.604 273.967 L 668.117 224.834 Z " fill="rgb(242,86,75)"/><path d=" M 658.98 442.408 C 658.98 442.408 658.267 453.545 656.114 453.696 C 655.83 453.718 645.203 453.696 645.203 453.696 L 631.638 453.588 C 631.638 453.588 631.735 450.314 635.702 449.629 C 639.666 448.948 646.312 446.172 648.724 440.926 C 651.262 435.414 658.98 442.408 658.98 442.408 Z " fill="rgb(22,53,96)"/><path d=" M 689.195 442.473 C 689.195 442.473 688.482 453.61 686.329 453.765 C 686.045 453.783 675.418 453.761 675.418 453.761 L 661.853 453.653 C 661.853 453.653 661.946 450.379 665.914 449.698 C 669.881 449.013 676.523 446.237 678.938 440.995 C 681.476 435.479 689.195 442.473 689.195 442.473 Z " fill="rgb(22,53,96)"/><path d=" M 644.216 322.681 C 644.216 322.681 647.716 345.412 660.863 385.78 C 674.01 426.145 675.778 443.616 675.778 443.616 L 689.976 443.252 C 689.976 443.252 690.192 399.167 684.137 378.865 C 678.082 358.568 682.978 305.736 682.978 305.736 L 644.216 322.681 Z " fill="rgb(22,53,96)"/><path d=" M 637.344 306.883 C 637.344 306.883 636.768 341.122 642.589 383.181 C 648.418 425.24 646.373 443.082 646.373 443.082 L 660.539 443.583 C 660.539 443.583 669.1 401.543 666.716 380.491 C 664.333 359.444 678.47 308.307 678.47 308.307 L 637.344 306.883 Z " fill="rgb(28,70,138)"/><path d=" M 664.945 226.806 L 657.385 231.749 L 646.481 229.687 C 646.632 228.807 647.363 225.151 648.025 221.842 C 648.065 221.647 648.104 221.452 648.14 221.261 C 648.709 218.446 649.199 216.023 649.199 216.023 L 659.401 211.545 L 663.203 209.872 C 663.192 209.934 662.9 213.002 662.861 213.449 C 662.13 221.398 664.945 226.806 664.945 226.806 Z " fill="rgb(252,148,144)"/><path d=" M 649.285 224.272 C 649.498 224.182 662.432 220.389 663.836 220.858 C 665.24 221.326 666.065 224.048 666.065 224.048 L 644.911 228.789 C 644.911 228.789 646.582 225.404 649.285 224.272 Z " fill="rgb(242,86,75)"/><path d=" M 683.906 311.209 C 681.696 321.217 645.224 322.324 635.843 313.217 C 634.777 312.179 634.734 307.359 635.152 300.862 C 635.969 288.171 638.543 269.082 638.662 259.326 C 638.723 254.614 639.378 249.797 640.249 245.424 C 642.1 236.101 644.911 228.789 644.911 228.789 C 644.911 228.789 662.735 223.06 666.065 224.048 C 682.11 228.807 686.12 301.204 683.906 311.209 Z " fill="rgb(251,115,105)"/><path d=" M 635.152 300.862 C 635.969 288.171 638.543 269.082 638.662 259.326 C 638.723 254.614 639.378 249.797 640.249 245.424 L 650.966 243.553 C 650.966 243.553 661.352 286.427 635.152 300.862 Z " fill="rgb(242,86,75)"/><path d=" M 640.994 283.182 C 640.994 283.182 641.718 284.93 640.184 286.102 C 638.647 287.274 637.65 289.174 637.996 290.562 C 638.345 291.953 641.704 294.228 642.87 293.864 C 644.04 293.5 646.416 291.676 646.16 290.944 C 645.908 290.208 647.773 284.512 644.933 282.313 C 642.096 280.11 640.994 283.182 640.994 283.182 Z " fill="rgb(252,148,144)"/><path d=" M 653.098 226.237 C 653.098 226.237 642.643 228.173 634.291 240.445 C 625.939 252.714 620.442 261.839 621.965 266.27 C 623.488 270.704 637.438 286.095 639.846 286.098 C 642.258 286.102 646.15 284.357 646.376 280.406 C 646.376 280.406 636.566 265.61 638.51 263.403 C 639.342 262.459 651.312 252.768 653.011 257.163 C 655.816 264.431 653.098 226.237 653.098 226.237 Z " fill="rgb(251,115,105)"/><path d=" M 662.098 213.586 C 659.851 217.379 651.503 220.641 648.025 221.842 C 648.065 221.647 648.104 221.452 648.14 221.261 C 648.709 218.446 649.199 216.023 649.199 216.023 L 659.401 211.545 C 661.651 211.52 663.023 212.025 662.098 213.586 Z " fill="rgb(252,165,107)"/><path d=" M 645.361 215.396 C 645.361 215.396 661.763 220.558 664.819 210.28 C 667.872 200.001 672.044 193.742 661.702 190.011 C 651.359 186.28 648.148 189.593 646.294 192.776 C 644.443 195.96 641.171 213.788 645.361 215.396 Z " fill="rgb(252,148,144)"/><path d=" M 646.942 191.788 C 646.942 191.788 647.964 203.758 650.437 203.246 C 652.907 202.73 655.15 202.352 654.782 205.957 C 654.412 209.566 650.974 213.723 658.591 214.379 C 666.209 215.035 677.203 195.383 675.119 191.655 C 669.103 180.893 638.244 178.654 646.942 191.788 Z " fill="rgb(22,53,96)"/><path d=" M 308.984 103.196 L 305.986 103.196 L 305.986 100.28 L 308.984 100.28 L 308.984 103.196 Z " fill="rgb(211,227,251)"/><path d=" M 308.984 97.298 L 305.986 97.298 L 305.986 94.381 L 308.984 94.381 L 308.984 97.298 Z " fill="rgb(211,227,251)"/><path d=" M 308.984 91.398 L 305.986 91.398 L 305.986 88.481 L 308.984 88.481 L 308.984 91.398 Z " fill="rgb(211,227,251)"/><path d=" M 308.984 85.499 L 305.986 85.499 L 305.986 82.582 L 308.984 82.582 L 308.984 85.499 Z " fill="rgb(211,227,251)"/><path d=" M 308.984 79.601 L 305.986 79.601 L 305.986 76.684 L 308.984 76.684 L 308.984 79.601 Z " fill="rgb(211,227,251)"/><path d=" M 308.984 73.702 L 305.986 73.702 L 305.986 70.785 L 308.984 70.785 L 308.984 73.702 Z " fill="rgb(211,227,251)"/><path d=" M 308.984 67.803 L 305.986 67.803 L 305.986 64.886 L 308.984 64.886 L 308.984 67.803 Z " fill="rgb(211,227,251)"/><path d=" M 308.984 61.904 L 305.986 61.904 L 305.986 58.987 L 308.984 58.987 L 308.984 61.904 Z " fill="rgb(211,227,251)"/><path d=" M 308.984 56.005 L 305.986 56.005 L 305.986 53.089 L 308.984 53.089 L 308.984 56.005 Z " fill="rgb(211,227,251)"/><path d=" M 308.984 50.107 L 305.986 50.107 L 305.986 47.19 L 308.984 47.19 L 308.984 50.107 Z " fill="rgb(211,227,251)"/><path d=" M 308.984 44.208 L 305.986 44.208 L 305.986 41.291 L 308.984 41.291 L 308.984 44.208 Z " fill="rgb(211,227,251)"/><path d=" M 308.984 38.309 L 305.986 38.309 L 305.986 35.393 L 308.984 35.393 L 308.984 38.309 Z " fill="rgb(211,227,251)"/><path d=" M 308.984 32.41 L 305.986 32.41 L 305.986 29.494 L 308.984 29.494 L 308.984 32.41 Z " fill="rgb(211,227,251)"/><path d=" M 308.984 26.512 L 305.986 26.512 L 305.986 23.595 L 308.984 23.595 L 308.984 26.512 Z " fill="rgb(211,227,251)"/><path d=" M 308.984 20.613 L 305.986 20.613 L 305.986 17.696 L 308.984 17.696 L 308.984 20.613 Z " fill="rgb(211,227,251)"/><path d=" M 308.984 14.714 L 305.986 14.714 L 305.986 11.798 L 308.984 11.798 L 308.984 14.714 Z " fill="rgb(211,227,251)"/><path d=" M 308.984 8.815 L 305.986 8.815 L 305.986 5.898 L 308.984 5.898 L 308.984 8.815 Z " fill="rgb(211,227,251)"/><path d=" M 308.984 2.917 L 305.986 2.917 L 305.986 0 L 308.984 0 L 308.984 2.917 Z " fill="rgb(211,227,251)"/><path d=" M 299.815 67.803 L 296.813 67.803 L 296.813 64.886 L 299.815 64.886 L 299.815 67.803 Z " fill="rgb(211,227,251)"/><path d=" M 299.815 61.904 L 296.813 61.904 L 296.813 58.987 L 299.815 58.987 L 299.815 61.904 Z " fill="rgb(211,227,251)"/><path d=" M 299.815 56.005 L 296.813 56.005 L 296.813 53.089 L 299.815 53.089 L 299.815 56.005 Z " fill="rgb(211,227,251)"/><path d=" M 299.815 50.107 L 296.813 50.107 L 296.813 47.19 L 299.815 47.19 L 299.815 50.107 Z " fill="rgb(211,227,251)"/><path d=" M 299.815 44.208 L 296.813 44.208 L 296.813 41.291 L 299.815 41.291 L 299.815 44.208 Z " fill="rgb(211,227,251)"/><path d=" M 299.815 38.309 L 296.813 38.309 L 296.813 35.393 L 299.815 35.393 L 299.815 38.309 Z " fill="rgb(211,227,251)"/><path d=" M 299.815 32.41 L 296.813 32.41 L 296.813 29.494 L 299.815 29.494 L 299.815 32.41 Z " fill="rgb(211,227,251)"/><path d=" M 299.815 26.512 L 296.813 26.512 L 296.813 23.595 L 299.815 23.595 L 299.815 26.512 Z " fill="rgb(211,227,251)"/><path d=" M 299.815 20.613 L 296.813 20.613 L 296.813 17.696 L 299.815 17.696 L 299.815 20.613 Z " fill="rgb(211,227,251)"/><path d=" M 299.815 14.714 L 296.813 14.714 L 296.813 11.798 L 299.815 11.798 L 299.815 14.714 Z " fill="rgb(211,227,251)"/><path d=" M 299.815 8.815 L 296.813 8.815 L 296.813 5.898 L 299.815 5.898 L 299.815 8.815 Z " fill="rgb(211,227,251)"/><path d=" M 299.815 2.917 L 296.813 2.917 L 296.813 0 L 299.815 0 L 299.815 2.917 Z " fill="rgb(211,227,251)"/><path d=" M 290.47 103.196 L 287.471 103.196 L 287.471 100.28 L 290.47 100.28 L 290.47 103.196 Z " fill="rgb(211,227,251)"/><path d=" M 290.47 97.298 L 287.471 97.298 L 287.471 94.381 L 290.47 94.381 L 290.47 97.298 Z " fill="rgb(211,227,251)"/><path d=" M 290.47 91.398 L 287.471 91.398 L 287.471 88.481 L 290.47 88.481 L 290.47 91.398 Z " fill="rgb(211,227,251)"/><path d=" M 290.47 85.499 L 287.471 85.499 L 287.471 82.582 L 290.47 82.582 L 290.47 85.499 Z " fill="rgb(211,227,251)"/><path d=" M 290.47 79.601 L 287.471 79.601 L 287.471 76.684 L 290.47 76.684 L 290.47 79.601 Z " fill="rgb(211,227,251)"/><path d=" M 290.47 73.702 L 287.471 73.702 L 287.471 70.785 L 290.47 70.785 L 290.47 73.702 Z " fill="rgb(211,227,251)"/><path d=" M 290.47 67.803 L 287.471 67.803 L 287.471 64.886 L 290.47 64.886 L 290.47 67.803 Z " fill="rgb(211,227,251)"/><path d=" M 290.47 61.904 L 287.471 61.904 L 287.471 58.987 L 290.47 58.987 L 290.47 61.904 Z " fill="rgb(211,227,251)"/><path d=" M 290.47 56.005 L 287.471 56.005 L 287.471 53.089 L 290.47 53.089 L 290.47 56.005 Z " fill="rgb(211,227,251)"/><path d=" M 290.47 50.107 L 287.471 50.107 L 287.471 47.19 L 290.47 47.19 L 290.47 50.107 Z " fill="rgb(211,227,251)"/><path d=" M 290.47 44.208 L 287.471 44.208 L 287.471 41.291 L 290.47 41.291 L 290.47 44.208 Z " fill="rgb(211,227,251)"/><path d=" M 290.47 38.309 L 287.471 38.309 L 287.471 35.393 L 290.47 35.393 L 290.47 38.309 Z " fill="rgb(211,227,251)"/><path d=" M 290.47 32.41 L 287.471 32.41 L 287.471 29.494 L 290.47 29.494 L 290.47 32.41 Z " fill="rgb(211,227,251)"/><path d=" M 290.47 26.512 L 287.471 26.512 L 287.471 23.595 L 290.47 23.595 L 290.47 26.512 Z " fill="rgb(211,227,251)"/><path d=" M 290.47 20.613 L 287.471 20.613 L 287.471 17.696 L 290.47 17.696 L 290.47 20.613 Z " fill="rgb(211,227,251)"/><path d=" M 290.47 14.714 L 287.471 14.714 L 287.471 11.798 L 290.47 11.798 L 290.47 14.714 Z " fill="rgb(211,227,251)"/><path d=" M 290.47 8.815 L 287.471 8.815 L 287.471 5.898 L 290.47 5.898 L 290.47 8.815 Z " fill="rgb(211,227,251)"/><path d=" M 290.47 2.917 L 287.471 2.917 L 287.471 0 L 290.47 0 L 290.47 2.917 Z " fill="rgb(211,227,251)"/><path d=" M 282.604 114.993 L 279.601 114.993 L 279.601 112.076 L 282.604 112.076 L 282.604 114.993 Z " fill="rgb(211,227,251)"/><path d=" M 282.604 109.095 L 279.601 109.095 L 279.601 106.178 L 282.604 106.178 L 282.604 109.095 Z " fill="rgb(211,227,251)"/><path d=" M 282.604 103.196 L 279.601 103.196 L 279.601 100.28 L 282.604 100.28 L 282.604 103.196 Z " fill="rgb(211,227,251)"/><path d=" M 282.604 97.298 L 279.601 97.298 L 279.601 94.381 L 282.604 94.381 L 282.604 97.298 Z " fill="rgb(211,227,251)"/><path d=" M 282.604 91.398 L 279.601 91.398 L 279.601 88.481 L 282.604 88.481 L 282.604 91.398 Z " fill="rgb(211,227,251)"/><path d=" M 282.604 85.499 L 279.601 85.499 L 279.601 82.582 L 282.604 82.582 L 282.604 85.499 Z " fill="rgb(211,227,251)"/><path d=" M 282.604 79.601 L 279.601 79.601 L 279.601 76.684 L 282.604 76.684 L 282.604 79.601 Z " fill="rgb(211,227,251)"/><path d=" M 282.604 73.702 L 279.601 73.702 L 279.601 70.785 L 282.604 70.785 L 282.604 73.702 Z " fill="rgb(211,227,251)"/><path d=" M 282.604 67.803 L 279.601 67.803 L 279.601 64.886 L 282.604 64.886 L 282.604 67.803 Z " fill="rgb(211,227,251)"/><path d=" M 282.604 61.904 L 279.601 61.904 L 279.601 58.987 L 282.604 58.987 L 282.604 61.904 Z " fill="rgb(211,227,251)"/><path d=" M 282.604 56.005 L 279.601 56.005 L 279.601 53.089 L 282.604 53.089 L 282.604 56.005 Z " fill="rgb(211,227,251)"/><path d=" M 282.604 50.107 L 279.601 50.107 L 279.601 47.19 L 282.604 47.19 L 282.604 50.107 Z " fill="rgb(211,227,251)"/><path d=" M 282.604 44.208 L 279.601 44.208 L 279.601 41.291 L 282.604 41.291 L 282.604 44.208 Z " fill="rgb(211,227,251)"/><path d=" M 282.604 38.309 L 279.601 38.309 L 279.601 35.393 L 282.604 35.393 L 282.604 38.309 Z " fill="rgb(211,227,251)"/><path d=" M 282.604 32.41 L 279.601 32.41 L 279.601 29.494 L 282.604 29.494 L 282.604 32.41 Z " fill="rgb(211,227,251)"/><path d=" M 282.604 26.512 L 279.601 26.512 L 279.601 23.595 L 282.604 23.595 L 282.604 26.512 Z " fill="rgb(211,227,251)"/><path d=" M 282.604 20.613 L 279.601 20.613 L 279.601 17.696 L 282.604 17.696 L 282.604 20.613 Z " fill="rgb(211,227,251)"/><path d=" M 282.604 14.714 L 279.601 14.714 L 279.601 11.798 L 282.604 11.798 L 282.604 14.714 Z " fill="rgb(211,227,251)"/><path d=" M 282.604 8.815 L 279.601 8.815 L 279.601 5.898 L 282.604 5.898 L 282.604 8.815 Z " fill="rgb(211,227,251)"/><path d=" M 282.604 2.917 L 279.601 2.917 L 279.601 0 L 282.604 0 L 282.604 2.917 Z " fill="rgb(211,227,251)"/><path d=" M 272.221 61.904 L 269.219 61.904 L 269.219 58.987 L 272.221 58.987 L 272.221 61.904 Z " fill="rgb(211,227,251)"/><path d=" M 272.221 56.005 L 269.219 56.005 L 269.219 53.089 L 272.221 53.089 L 272.221 56.005 Z " fill="rgb(211,227,251)"/><path d=" M 272.221 50.107 L 269.219 50.107 L 269.219 47.19 L 272.221 47.19 L 272.221 50.107 Z " fill="rgb(211,227,251)"/><path d=" M 272.221 44.208 L 269.219 44.208 L 269.219 41.291 L 272.221 41.291 L 272.221 44.208 Z " fill="rgb(211,227,251)"/><path d=" M 272.221 38.309 L 269.219 38.309 L 269.219 35.393 L 272.221 35.393 L 272.221 38.309 Z " fill="rgb(211,227,251)"/><path d=" M 272.221 32.41 L 269.219 32.41 L 269.219 29.494 L 272.221 29.494 L 272.221 32.41 Z " fill="rgb(211,227,251)"/><path d=" M 272.221 26.512 L 269.219 26.512 L 269.219 23.595 L 272.221 23.595 L 272.221 26.512 Z " fill="rgb(211,227,251)"/><path d=" M 272.221 20.613 L 269.219 20.613 L 269.219 17.696 L 272.221 17.696 L 272.221 20.613 Z " fill="rgb(211,227,251)"/><path d=" M 272.221 14.714 L 269.219 14.714 L 269.219 11.798 L 272.221 11.798 L 272.221 14.714 Z " fill="rgb(211,227,251)"/><path d=" M 272.221 8.815 L 269.219 8.815 L 269.219 5.898 L 272.221 5.898 L 272.221 8.815 Z " fill="rgb(211,227,251)"/><path d=" M 272.221 2.917 L 269.219 2.917 L 269.219 0 L 272.221 0 L 272.221 2.917 Z " fill="rgb(211,227,251)"/><path d=" M 721.984 215.363 L 718.981 215.363 L 718.981 212.443 L 721.984 212.443 L 721.984 215.363 Z " fill="rgb(211,227,251)"/><path d=" M 721.984 221.261 L 718.981 221.261 L 718.981 218.345 L 721.984 218.345 L 721.984 221.261 Z " fill="rgb(211,227,251)"/><path d=" M 721.984 227.16 L 718.981 227.16 L 718.981 224.243 L 721.984 224.243 L 721.984 227.16 Z " fill="rgb(211,227,251)"/><path d=" M 721.984 233.058 L 718.981 233.058 L 718.981 230.141 L 721.984 230.141 L 721.984 233.058 Z " fill="rgb(211,227,251)"/><path d=" M 721.984 238.956 L 718.981 238.956 L 718.981 236.039 L 721.984 236.039 L 721.984 238.956 Z " fill="rgb(211,227,251)"/><path d=" M 721.984 244.854 L 718.981 244.854 L 718.981 241.938 L 721.984 241.938 L 721.984 244.854 Z " fill="rgb(211,227,251)"/><path d=" M 721.984 250.752 L 718.981 250.752 L 718.981 247.836 L 721.984 247.836 L 721.984 250.752 Z " fill="rgb(211,227,251)"/><path d=" M 721.984 256.654 L 718.981 256.654 L 718.981 253.738 L 721.984 253.738 L 721.984 256.654 Z " fill="rgb(211,227,251)"/><path d=" M 721.984 262.552 L 718.981 262.552 L 718.981 259.636 L 721.984 259.636 L 721.984 262.552 Z " fill="rgb(211,227,251)"/><path d=" M 721.984 268.451 L 718.981 268.451 L 718.981 265.534 L 721.984 265.534 L 721.984 268.451 Z " fill="rgb(211,227,251)"/><path d=" M 721.984 274.349 L 718.981 274.349 L 718.981 271.432 L 721.984 271.432 L 721.984 274.349 Z " fill="rgb(211,227,251)"/><path d=" M 721.984 280.247 L 718.981 280.247 L 718.981 277.33 L 721.984 277.33 L 721.984 280.247 Z " fill="rgb(211,227,251)"/><path d=" M 721.984 286.145 L 718.981 286.145 L 718.981 283.229 L 721.984 283.229 L 721.984 286.145 Z " fill="rgb(211,227,251)"/><path d=" M 721.984 292.047 L 718.981 292.047 L 718.981 289.13 L 721.984 289.13 L 721.984 292.047 Z " fill="rgb(211,227,251)"/><path d=" M 721.984 297.945 L 718.981 297.945 L 718.981 295.029 L 721.984 295.029 L 721.984 297.945 Z " fill="rgb(211,227,251)"/><path d=" M 721.984 303.844 L 718.981 303.844 L 718.981 300.927 L 721.984 300.927 L 721.984 303.844 Z " fill="rgb(211,227,251)"/><path d=" M 721.984 309.742 L 718.981 309.742 L 718.981 306.825 L 721.984 306.825 L 721.984 309.742 Z " fill="rgb(211,227,251)"/><path d=" M 721.984 315.64 L 718.981 315.64 L 718.981 312.723 L 721.984 312.723 L 721.984 315.64 Z " fill="rgb(211,227,251)"/><path d=" M 731.153 250.752 L 728.154 250.752 L 728.154 247.836 L 731.153 247.836 L 731.153 250.752 Z " fill="rgb(211,227,251)"/><path d=" M 731.153 256.654 L 728.154 256.654 L 728.154 253.738 L 731.153 253.738 L 731.153 256.654 Z " fill="rgb(211,227,251)"/><path d=" M 731.153 262.552 L 728.154 262.552 L 728.154 259.636 L 731.153 259.636 L 731.153 262.552 Z " fill="rgb(211,227,251)"/><path d=" M 731.153 268.451 L 728.154 268.451 L 728.154 265.534 L 731.153 265.534 L 731.153 268.451 Z " fill="rgb(211,227,251)"/><path d=" M 731.153 274.349 L 728.154 274.349 L 728.154 271.432 L 731.153 271.432 L 731.153 274.349 Z " fill="rgb(211,227,251)"/><path d=" M 731.153 280.247 L 728.154 280.247 L 728.154 277.33 L 731.153 277.33 L 731.153 280.247 Z " fill="rgb(211,227,251)"/><path d=" M 731.153 286.145 L 728.154 286.145 L 728.154 283.229 L 731.153 283.229 L 731.153 286.145 Z " fill="rgb(211,227,251)"/><path d=" M 731.153 292.047 L 728.154 292.047 L 728.154 289.13 L 731.153 289.13 L 731.153 292.047 Z " fill="rgb(211,227,251)"/><path d=" M 731.153 297.945 L 728.154 297.945 L 728.154 295.029 L 731.153 295.029 L 731.153 297.945 Z " fill="rgb(211,227,251)"/><path d=" M 731.153 303.844 L 728.154 303.844 L 728.154 300.927 L 731.153 300.927 L 731.153 303.844 Z " fill="rgb(211,227,251)"/><path d=" M 731.153 309.742 L 728.154 309.742 L 728.154 306.825 L 731.153 306.825 L 731.153 309.742 Z " fill="rgb(211,227,251)"/><path d=" M 731.153 315.64 L 728.154 315.64 L 728.154 312.723 L 731.153 312.723 L 731.153 315.64 Z " fill="rgb(211,227,251)"/><path d=" M 740.498 215.363 L 737.496 215.363 L 737.496 212.443 L 740.498 212.443 L 740.498 215.363 Z " fill="rgb(211,227,251)"/><path d=" M 740.498 221.261 L 737.496 221.261 L 737.496 218.345 L 740.498 218.345 L 740.498 221.261 Z " fill="rgb(211,227,251)"/><path d=" M 740.498 227.16 L 737.496 227.16 L 737.496 224.243 L 740.498 224.243 L 740.498 227.16 Z " fill="rgb(211,227,251)"/><path d=" M 740.498 233.058 L 737.496 233.058 L 737.496 230.141 L 740.498 230.141 L 740.498 233.058 Z " fill="rgb(211,227,251)"/><path d=" M 740.498 238.956 L 737.496 238.956 L 737.496 236.039 L 740.498 236.039 L 740.498 238.956 Z " fill="rgb(211,227,251)"/><path d=" M 740.498 244.854 L 737.496 244.854 L 737.496 241.938 L 740.498 241.938 L 740.498 244.854 Z " fill="rgb(211,227,251)"/><path d=" M 740.498 250.752 L 737.496 250.752 L 737.496 247.836 L 740.498 247.836 L 740.498 250.752 Z " fill="rgb(211,227,251)"/><path d=" M 740.498 256.654 L 737.496 256.654 L 737.496 253.738 L 740.498 253.738 L 740.498 256.654 Z " fill="rgb(211,227,251)"/><path d=" M 740.498 262.552 L 737.496 262.552 L 737.496 259.636 L 740.498 259.636 L 740.498 262.552 Z " fill="rgb(211,227,251)"/><path d=" M 740.498 268.451 L 737.496 268.451 L 737.496 265.534 L 740.498 265.534 L 740.498 268.451 Z " fill="rgb(211,227,251)"/><path d=" M 740.498 274.349 L 737.496 274.349 L 737.496 271.432 L 740.498 271.432 L 740.498 274.349 Z " fill="rgb(211,227,251)"/><path d=" M 740.498 280.247 L 737.496 280.247 L 737.496 277.33 L 740.498 277.33 L 740.498 280.247 Z " fill="rgb(211,227,251)"/><path d=" M 740.498 286.145 L 737.496 286.145 L 737.496 283.229 L 740.498 283.229 L 740.498 286.145 Z " fill="rgb(211,227,251)"/><path d=" M 740.498 292.047 L 737.496 292.047 L 737.496 289.13 L 740.498 289.13 L 740.498 292.047 Z " fill="rgb(211,227,251)"/><path d=" M 740.498 297.945 L 737.496 297.945 L 737.496 295.029 L 740.498 295.029 L 740.498 297.945 Z " fill="rgb(211,227,251)"/><path d=" M 740.498 303.844 L 737.496 303.844 L 737.496 300.927 L 740.498 300.927 L 740.498 303.844 Z " fill="rgb(211,227,251)"/><path d=" M 740.498 309.742 L 737.496 309.742 L 737.496 306.825 L 740.498 306.825 L 740.498 309.742 Z " fill="rgb(211,227,251)"/><path d=" M 740.498 315.64 L 737.496 315.64 L 737.496 312.723 L 740.498 312.723 L 740.498 315.64 Z " fill="rgb(211,227,251)"/><path d=" M 748.364 203.563 L 745.366 203.563 L 745.366 200.647 L 748.364 200.647 L 748.364 203.563 Z " fill="rgb(211,227,251)"/><path d=" M 748.364 209.461 L 745.366 209.461 L 745.366 206.545 L 748.364 206.545 L 748.364 209.461 Z " fill="rgb(211,227,251)"/><path d=" M 748.364 215.363 L 745.366 215.363 L 745.366 212.443 L 748.364 212.443 L 748.364 215.363 Z " fill="rgb(211,227,251)"/><path d=" M 748.364 221.261 L 745.366 221.261 L 745.366 218.345 L 748.364 218.345 L 748.364 221.261 Z " fill="rgb(211,227,251)"/><path d=" M 748.364 227.16 L 745.366 227.16 L 745.366 224.243 L 748.364 224.243 L 748.364 227.16 Z " fill="rgb(211,227,251)"/><path d=" M 748.364 233.058 L 745.366 233.058 L 745.366 230.141 L 748.364 230.141 L 748.364 233.058 Z " fill="rgb(211,227,251)"/><path d=" M 748.364 238.956 L 745.366 238.956 L 745.366 236.039 L 748.364 236.039 L 748.364 238.956 Z " fill="rgb(211,227,251)"/><path d=" M 748.364 244.854 L 745.366 244.854 L 745.366 241.938 L 748.364 241.938 L 748.364 244.854 Z " fill="rgb(211,227,251)"/><path d=" M 748.364 250.752 L 745.366 250.752 L 745.366 247.836 L 748.364 247.836 L 748.364 250.752 Z " fill="rgb(211,227,251)"/><path d=" M 748.364 256.654 L 745.366 256.654 L 745.366 253.738 L 748.364 253.738 L 748.364 256.654 Z " fill="rgb(211,227,251)"/><path d=" M 748.364 262.552 L 745.366 262.552 L 745.366 259.636 L 748.364 259.636 L 748.364 262.552 Z " fill="rgb(211,227,251)"/><path d=" M 748.364 268.451 L 745.366 268.451 L 745.366 265.534 L 748.364 265.534 L 748.364 268.451 Z " fill="rgb(211,227,251)"/><path d=" M 748.364 274.349 L 745.366 274.349 L 745.366 271.432 L 748.364 271.432 L 748.364 274.349 Z " fill="rgb(211,227,251)"/><path d=" M 748.364 280.247 L 745.366 280.247 L 745.366 277.33 L 748.364 277.33 L 748.364 280.247 Z " fill="rgb(211,227,251)"/><path d=" M 748.364 286.145 L 745.366 286.145 L 745.366 283.229 L 748.364 283.229 L 748.364 286.145 Z " fill="rgb(211,227,251)"/><path d=" M 748.364 292.047 L 745.366 292.047 L 745.366 289.13 L 748.364 289.13 L 748.364 292.047 Z " fill="rgb(211,227,251)"/><path d=" M 748.364 297.945 L 745.366 297.945 L 745.366 295.029 L 748.364 295.029 L 748.364 297.945 Z " fill="rgb(211,227,251)"/><path d=" M 748.364 303.844 L 745.366 303.844 L 745.366 300.927 L 748.364 300.927 L 748.364 303.844 Z " fill="rgb(211,227,251)"/><path d=" M 748.364 309.742 L 745.366 309.742 L 745.366 306.825 L 748.364 306.825 L 748.364 309.742 Z " fill="rgb(211,227,251)"/><path d=" M 748.364 315.64 L 745.366 315.64 L 745.366 312.723 L 748.364 312.723 L 748.364 315.64 Z " fill="rgb(211,227,251)"/><path d=" M 758.747 256.654 L 755.748 256.654 L 755.748 253.738 L 758.747 253.738 L 758.747 256.654 Z " fill="rgb(211,227,251)"/><path d=" M 758.747 262.552 L 755.748 262.552 L 755.748 259.636 L 758.747 259.636 L 758.747 262.552 Z " fill="rgb(211,227,251)"/><path d=" M 758.747 268.451 L 755.748 268.451 L 755.748 265.534 L 758.747 265.534 L 758.747 268.451 Z " fill="rgb(211,227,251)"/><path d=" M 758.747 274.349 L 755.748 274.349 L 755.748 271.432 L 758.747 271.432 L 758.747 274.349 Z " fill="rgb(211,227,251)"/><path d=" M 758.747 280.247 L 755.748 280.247 L 755.748 277.33 L 758.747 277.33 L 758.747 280.247 Z " fill="rgb(211,227,251)"/><path d=" M 758.747 286.145 L 755.748 286.145 L 755.748 283.229 L 758.747 283.229 L 758.747 286.145 Z " fill="rgb(211,227,251)"/><path d=" M 758.747 292.047 L 755.748 292.047 L 755.748 289.13 L 758.747 289.13 L 758.747 292.047 Z " fill="rgb(211,227,251)"/><path d=" M 758.747 297.945 L 755.748 297.945 L 755.748 295.029 L 758.747 295.029 L 758.747 297.945 Z " fill="rgb(211,227,251)"/><path d=" M 758.747 303.844 L 755.748 303.844 L 755.748 300.927 L 758.747 300.927 L 758.747 303.844 Z " fill="rgb(211,227,251)"/><path d=" M 758.747 309.742 L 755.748 309.742 L 755.748 306.825 L 758.747 306.825 L 758.747 309.742 Z " fill="rgb(211,227,251)"/><path d=" M 758.747 315.64 L 755.748 315.64 L 755.748 312.723 L 758.747 312.723 L 758.747 315.64 Z " fill="rgb(211,227,251)"/></g></svg>