<?xml version="1.0" encoding="UTF-8" standalone="no"?><!-- Generator: Gravit.io --><svg xmlns="http://www.w3.org/2000/svg" xmlns:xlink="http://www.w3.org/1999/xlink" style="isolation:isolate" viewBox="0 0 200 80" width="200pt" height="80pt"><g><path d=" M 114.618 11.654 C 116.266 7.832 112.034 0.487 112.336 5.322 C 112.337 5.348 112.337 5.376 112.338 5.402 C 112.202 14.465 100.353 19.603 99.435 31.197 C 99.432 31.224 99.428 31.251 99.424 31.278 C 97.348 41.872 109.19 38.343 111.814 32.115 C 111.851 32.028 111.876 31.937 111.878 31.843 C 111.901 31.058 111.259 30.638 110.54 30.458 C 107.99 30.181 108.784 27.367 109.718 25.833 C 110.646 23.869 113.227 23.196 114.021 21.243 C 114.107 21.03 114.121 20.786 114.021 20.58 C 113.77 20.068 113.07 20.13 112.441 20.107 C 111.858 20.086 111.501 19.61 111.642 19.045 C 112.108 17.188 114.467 13.35 114.618 11.654 Z " fill="rgb(232,112,109)"/><path d=" M 98.393 17.242 C 98.362 17.274 98.33 17.307 98.3 17.339 C 96.884 19.028 97.844 21.905 100.224 21.82 C 105.893 21.229 102.486 13.472 98.393 17.242 Z " fill="rgb(232,112,109)"/><path d=" M 100.343 7.351 C 100.302 5.386 99.469 3.293 97.711 2.276 C 97.656 2.244 97.599 2.218 97.539 2.198 C 94.289 1.138 87.441 4.501 87.162 8.228 C 87.163 8.285 87.164 8.342 87.165 8.399 C 87.395 10.494 90.886 9.625 90.517 12.039 C 90.161 16.003 86.642 17.014 85.478 18.793 C 85.16 19.278 85.427 19.948 85.993 20.076 C 86.703 20.237 87.616 20.166 87.778 20.967 C 87.802 21.085 87.794 21.209 87.766 21.326 C 86.81 25.227 84.308 28.965 85.182 33.171 C 85.437 34.534 86.004 36.412 87.542 36.73 C 89.074 36.879 87.435 32.815 88.545 30.798 C 92.197 22.927 100.588 16.772 100.343 7.351 Z " fill="rgb(232,112,109)"/></g><path d=" M 125.058 58.416 L 128.175 58.416 L 128.175 58.416 Q 128.111 59.219 127.629 60.28 L 127.629 60.28 L 127.629 60.28 Q 126.408 60.151 125.315 60.151 L 125.315 60.151 L 124.736 60.151 L 124.736 60.151 Q 123.258 67.318 123.258 69.086 L 123.258 69.086 L 123.258 69.086 Q 123.258 70.018 123.66 70.018 L 123.66 70.018 L 123.66 70.018 Q 124.061 70.018 125.797 69.214 L 125.797 69.214 L 126.376 70.275 L 126.376 70.275 Q 123.515 72.653 121.073 72.653 L 121.073 72.653 L 121.073 72.653 Q 119.948 72.653 119.225 71.946 L 119.225 71.946 L 119.225 71.946 Q 118.501 71.239 118.501 70.066 L 118.501 70.066 L 118.501 70.066 Q 118.501 68.893 118.775 67.415 L 118.775 67.415 L 118.775 67.415 Q 119.048 65.936 119.53 63.799 L 119.53 63.799 L 119.53 63.799 Q 120.012 61.662 120.237 60.344 L 120.237 60.344 L 120.237 60.344 Q 119.048 60.44 118.469 60.537 L 118.469 60.537 L 118.469 60.537 Q 118.405 60.151 118.405 59.492 L 118.405 59.492 L 118.405 59.492 Q 118.405 58.834 118.501 58.416 L 118.501 58.416 L 120.526 58.416 L 120.526 58.416 Q 120.783 56.68 120.783 55.138 L 120.783 55.138 L 120.751 54.141 L 120.751 54.045 L 120.751 54.045 Q 123.258 53.177 125.476 53.177 L 125.476 53.177 L 125.476 53.177 Q 125.604 53.82 125.604 54.784 L 125.604 54.784 L 125.604 54.784 Q 125.604 55.748 125.058 58.416 L 125.058 58.416 L 125.058 58.416 Z  M 127.468 66.708 L 127.468 66.708 L 127.468 66.708 Q 127.468 62.69 129.895 60.36 L 129.895 60.36 L 129.895 60.36 Q 132.321 58.03 135.407 58.03 L 135.407 58.03 L 135.407 58.03 Q 137.303 58.03 138.524 58.962 L 138.524 58.962 L 138.524 58.962 Q 139.745 59.894 139.745 61.453 L 139.745 61.453 L 139.745 61.453 Q 139.745 63.012 138.958 64.072 L 138.958 64.072 L 138.958 64.072 Q 138.171 65.133 137.046 65.711 L 137.046 65.711 L 137.046 65.711 Q 134.764 66.836 132.868 67.125 L 132.868 67.125 L 132.096 67.222 L 132.096 67.222 Q 132.321 70.243 134.571 70.243 L 134.571 70.243 L 134.571 70.243 Q 135.342 70.243 136.21 69.857 L 136.21 69.857 L 136.21 69.857 Q 137.078 69.472 137.56 69.086 L 137.56 69.086 L 138.042 68.7 L 138.813 69.729 L 138.813 69.729 Q 138.556 70.082 137.785 70.661 L 137.785 70.661 L 137.785 70.661 Q 137.014 71.239 136.339 71.625 L 136.339 71.625 L 136.339 71.625 Q 134.475 72.653 132.257 72.653 L 132.257 72.653 L 132.257 72.653 Q 130.039 72.653 128.754 71.079 L 128.754 71.079 L 128.754 71.079 Q 127.468 69.504 127.468 66.708 Z  M 132.064 65.647 L 132.064 65.647 Q 133.703 65.358 134.667 64.265 L 134.667 64.265 L 134.667 64.265 Q 135.632 63.172 135.632 61.437 L 135.632 61.437 L 135.632 61.437 Q 135.632 59.701 134.603 59.701 L 134.603 59.701 L 134.603 59.701 Q 133.382 59.701 132.723 61.774 L 132.723 61.774 L 132.723 61.774 Q 132.064 63.847 132.064 65.647 L 132.064 65.647 L 132.064 65.647 Z  M 149.998 58.962 L 149.998 58.962 L 149.998 58.962 Q 150.062 58.898 150.351 58.126 L 150.351 58.126 L 150.351 58.126 Q 151.862 58.126 154.401 59.026 L 154.401 59.026 L 154.401 59.026 Q 153.597 61.694 153.115 64.603 L 153.115 64.603 L 153.115 64.603 Q 152.633 67.511 152.633 68.748 L 152.633 68.748 L 152.633 68.748 Q 152.633 69.986 152.89 69.986 L 152.89 69.986 L 152.89 69.986 Q 153.083 69.986 154.304 69.375 L 154.304 69.375 L 154.69 69.182 L 155.269 70.307 L 155.269 70.307 Q 154.979 70.564 154.513 70.95 L 154.513 70.95 L 154.513 70.95 Q 154.047 71.336 152.762 71.995 L 152.762 71.995 L 152.762 71.995 Q 151.476 72.653 150.448 72.653 L 150.448 72.653 L 150.448 72.653 Q 148.455 72.653 148.134 70.854 L 148.134 70.854 L 148.134 70.854 Q 146.077 72.653 144.422 72.653 L 144.422 72.653 L 144.422 72.653 Q 142.766 72.653 141.626 71.368 L 141.626 71.368 L 141.626 71.368 Q 140.485 70.082 140.485 67.318 L 140.485 67.318 L 140.485 67.318 Q 140.485 63.012 142.252 60.521 L 142.252 60.521 L 142.252 60.521 Q 144.02 58.03 146.527 58.03 L 146.527 58.03 L 146.527 58.03 Q 148.327 58.03 149.998 58.962 Z  M 146.334 69.922 L 146.334 69.922 L 146.334 69.922 Q 147.105 69.922 148.069 69.311 L 148.069 69.311 L 148.069 69.311 Q 148.294 64.779 149.58 60.344 L 149.58 60.344 L 149.58 60.344 Q 148.616 59.926 147.941 59.926 L 147.941 59.926 L 147.941 59.926 Q 146.784 59.926 145.964 62.192 L 145.964 62.192 L 145.964 62.192 Q 145.145 64.458 145.145 67.19 L 145.145 67.19 L 145.145 67.19 Q 145.145 69.922 146.334 69.922 Z  M 156.715 72.364 L 156.715 72.364 L 156.104 72.364 L 156.104 72.364 Q 156.104 70.854 157.02 66.579 L 157.02 66.579 L 157.02 66.579 Q 157.936 62.305 157.936 61.726 L 157.936 61.726 L 157.936 61.726 Q 157.936 60.665 157.036 59.476 L 157.036 59.476 L 156.747 59.091 L 156.779 58.673 L 156.779 58.673 Q 158.515 58.191 162.339 58.191 L 162.339 58.191 L 162.339 58.191 Q 162.789 58.801 162.789 60.183 L 162.789 60.183 L 162.789 60.183 Q 165.682 58.03 167.385 58.03 L 167.385 58.03 L 167.385 58.03 Q 169.538 58.03 169.924 60.248 L 169.924 60.248 L 169.924 60.248 Q 170.792 59.541 172.19 58.785 L 172.19 58.785 L 172.19 58.785 Q 173.588 58.03 174.697 58.03 L 174.697 58.03 L 174.697 58.03 Q 175.805 58.03 176.545 58.753 L 176.545 58.753 L 176.545 58.753 Q 177.284 59.476 177.284 60.762 L 177.284 60.762 L 177.284 60.762 Q 177.284 62.047 176.577 65.004 L 176.577 65.004 L 176.577 65.004 Q 175.87 67.961 175.87 68.973 L 175.87 68.973 L 175.87 68.973 Q 175.87 69.986 176.159 69.986 L 176.159 69.986 L 176.159 69.986 Q 176.352 69.986 177.477 69.375 L 177.477 69.375 L 177.83 69.182 L 178.409 70.307 L 178.409 70.307 Q 177.573 71.143 176.143 71.898 L 176.143 71.898 L 176.143 71.898 Q 174.713 72.653 173.62 72.653 L 173.62 72.653 L 173.62 72.653 Q 171.21 72.653 171.21 69.922 L 171.21 69.922 L 171.21 69.922 Q 171.21 68.925 171.901 65.92 L 171.901 65.92 L 171.901 65.92 Q 172.592 62.915 172.592 61.999 L 172.592 61.999 L 172.592 61.999 Q 172.592 61.083 172.045 61.083 L 172.045 61.083 L 172.045 61.083 Q 171.113 61.083 169.924 61.79 L 169.924 61.79 L 169.924 61.79 Q 169.86 62.433 169.04 66.161 L 169.04 66.161 L 169.04 66.161 Q 168.221 69.889 168.221 71.946 L 168.221 71.946 L 168.221 71.946 Q 167.289 72.364 163.85 72.364 L 163.85 72.364 L 163.85 72.364 Q 163.785 72.011 163.785 70.661 L 163.785 70.661 L 163.785 70.661 Q 163.785 69.311 164.541 66.065 L 164.541 66.065 L 164.541 66.065 Q 165.296 62.819 165.296 61.951 L 165.296 61.951 L 165.296 61.951 Q 165.296 61.083 164.685 61.083 L 164.685 61.083 L 164.685 61.083 Q 163.721 61.083 162.564 61.855 L 162.564 61.855 L 162.564 61.855 Q 162.5 62.144 161.921 64.683 L 161.921 64.683 L 161.921 64.683 Q 160.764 69.761 160.764 71.914 L 160.764 71.914 L 160.764 71.914 Q 159.64 72.364 156.715 72.364 Z  M 24.109 51.056 L 24.109 51.056 L 24.109 51.056 Q 24.109 49.995 23.916 49.545 L 23.916 49.545 L 23.916 49.545 Q 26.423 48.678 28.64 48.678 L 28.64 48.678 L 28.64 48.678 Q 28.93 48.967 28.93 50.156 L 28.93 50.156 L 28.93 50.156 Q 28.93 52.277 27.13 59.926 L 27.13 59.926 L 27.13 59.926 Q 29.733 58.03 31.694 58.03 L 31.694 58.03 L 31.694 58.03 Q 32.915 58.03 33.542 58.801 L 33.542 58.801 L 33.542 58.801 Q 34.168 59.573 34.168 60.842 L 34.168 60.842 L 34.168 60.842 Q 34.168 62.112 33.429 64.988 L 33.429 64.988 L 33.429 64.988 Q 32.69 67.865 32.69 68.925 L 32.69 68.925 L 32.69 68.925 Q 32.69 69.986 32.947 69.986 L 32.947 69.986 L 32.947 69.986 Q 33.204 69.986 34.297 69.407 L 34.297 69.407 L 34.683 69.214 L 35.261 70.339 L 35.261 70.339 Q 34.972 70.596 34.49 70.982 L 34.49 70.982 L 34.49 70.982 Q 34.008 71.368 32.722 72.011 L 32.722 72.011 L 32.722 72.011 Q 31.437 72.653 30.36 72.653 L 30.36 72.653 L 30.36 72.653 Q 29.283 72.653 28.64 71.962 L 28.64 71.962 L 28.64 71.962 Q 27.998 71.271 27.998 70.098 L 27.998 70.098 L 27.998 70.098 Q 27.998 68.925 28.721 65.824 L 28.721 65.824 L 28.721 65.824 Q 29.444 62.722 29.444 61.903 L 29.444 61.903 L 29.444 61.903 Q 29.444 61.083 28.769 61.083 L 28.769 61.083 L 28.769 61.083 Q 27.933 61.083 26.68 61.79 L 26.68 61.79 L 26.68 61.79 Q 24.912 69.568 24.912 71.882 L 24.912 71.882 L 24.912 71.882 Q 23.562 72.396 20.316 72.396 L 20.316 72.396 L 20.316 72.396 Q 20.284 71.85 20.284 71.432 L 20.284 71.432 L 20.284 71.432 Q 20.284 70.05 22.197 61.983 L 22.197 61.983 L 22.197 61.983 Q 24.109 53.916 24.109 51.056 Z  M 37.157 72.364 L 37.157 72.364 L 36.547 72.364 L 36.547 72.364 Q 36.547 70.854 37.463 66.579 L 37.463 66.579 L 37.463 66.579 Q 38.379 62.305 38.379 61.726 L 38.379 61.726 L 38.379 61.726 Q 38.379 60.665 37.479 59.476 L 37.479 59.476 L 37.189 59.091 L 37.222 58.673 L 37.222 58.673 Q 38.957 58.191 42.782 58.191 L 42.782 58.191 L 42.782 58.191 Q 43.199 58.737 43.232 60.183 L 43.232 60.183 L 43.232 60.183 Q 46.028 58.03 47.956 58.03 L 47.956 58.03 L 47.956 58.03 Q 49.113 58.03 49.804 58.834 L 49.804 58.834 L 49.804 58.834 Q 50.495 59.637 50.495 60.842 L 50.495 60.842 L 50.495 60.842 Q 50.495 62.047 49.756 65.004 L 49.756 65.004 L 49.756 65.004 Q 49.017 67.961 49.017 68.973 L 49.017 68.973 L 49.017 68.973 Q 49.017 69.986 49.274 69.986 L 49.274 69.986 L 49.274 69.986 Q 49.467 69.986 50.624 69.375 L 50.624 69.375 L 51.009 69.182 L 51.588 70.307 L 51.588 70.307 Q 51.299 70.564 50.816 70.95 L 50.816 70.95 L 50.816 70.95 Q 50.334 71.336 49.033 71.995 L 49.033 71.995 L 49.033 71.995 Q 47.731 72.653 46.703 72.653 L 46.703 72.653 L 46.703 72.653 Q 44.356 72.653 44.356 69.986 L 44.356 69.986 L 44.356 69.986 Q 44.356 68.861 45.08 65.84 L 45.08 65.84 L 45.08 65.84 Q 45.803 62.819 45.803 61.951 L 45.803 61.951 L 45.803 61.951 Q 45.803 61.083 45.256 61.083 L 45.256 61.083 L 45.256 61.083 Q 44.324 61.083 42.974 61.887 L 42.974 61.887 L 42.974 61.887 Q 42.878 62.433 42.332 64.779 L 42.332 64.779 L 42.332 64.779 Q 41.207 69.825 41.207 71.914 L 41.207 71.914 L 41.207 71.914 Q 40.082 72.364 37.157 72.364 Z  M 60.94 49.835 L 60.94 49.835 L 60.94 49.835 Q 60.94 52.277 59.301 59.412 L 59.301 59.412 L 59.301 59.412 Q 61.229 58.03 62.788 58.03 L 62.788 58.03 L 62.788 58.03 Q 64.347 58.03 65.456 59.332 L 65.456 59.332 L 65.456 59.332 Q 66.565 60.633 66.565 63.301 L 66.565 63.301 L 66.565 63.301 Q 66.565 67.768 64.813 70.211 L 64.813 70.211 L 64.813 70.211 Q 63.061 72.653 60.555 72.653 L 60.555 72.653 L 60.555 72.653 Q 59.623 72.653 58.674 72.428 L 58.674 72.428 L 58.674 72.428 Q 57.726 72.203 57.244 71.946 L 57.244 71.946 L 56.762 71.721 L 56.762 71.721 Q 54.705 72.428 52.745 72.428 L 52.745 72.428 L 52.745 72.428 Q 52.552 72.268 52.552 70.87 L 52.552 70.87 L 52.552 70.87 Q 52.552 69.472 54.352 61.614 L 54.352 61.614 L 54.352 61.614 Q 56.152 53.756 56.152 50.863 L 56.152 50.863 L 56.152 50.863 Q 56.152 50.349 55.991 49.545 L 55.991 49.545 L 55.991 49.545 Q 58.498 48.678 60.78 48.678 L 60.78 48.678 L 60.78 48.678 Q 60.94 49.128 60.94 49.835 Z  M 60.651 60.762 L 60.651 60.762 L 60.651 60.762 Q 60.04 60.762 58.819 61.34 L 58.819 61.34 L 58.819 61.34 Q 57.341 67.575 57.212 70.275 L 57.212 70.275 L 57.212 70.275 Q 58.176 70.693 59.044 70.693 L 59.044 70.693 L 59.044 70.693 Q 60.265 70.693 61.085 68.443 L 61.085 68.443 L 61.085 68.443 Q 61.904 66.193 61.904 63.478 L 61.904 63.478 L 61.904 63.478 Q 61.904 60.762 60.651 60.762 Z  M 77.974 68.057 L 77.974 68.057 L 77.974 68.057 Q 77.974 70.082 76.19 71.368 L 76.19 71.368 L 76.19 71.368 Q 74.407 72.653 72.125 72.653 L 72.125 72.653 L 72.125 72.653 Q 69.843 72.653 68.509 71.689 L 68.509 71.689 L 68.509 71.689 Q 67.175 70.725 67.175 69.986 L 67.175 69.986 L 67.175 69.986 Q 67.175 69.536 68.3 68.523 L 68.3 68.523 L 68.3 68.523 Q 69.425 67.511 70.196 67.286 L 70.196 67.286 L 70.196 67.286 Q 71.803 68.475 72.832 71.046 L 72.832 71.046 L 72.832 71.046 Q 74.021 70.95 74.021 69.922 L 74.021 69.922 L 74.021 69.922 Q 74.021 68.443 71.418 65.727 L 71.418 65.727 L 71.418 65.727 Q 68.814 63.012 68.814 61.405 L 68.814 61.405 L 68.814 61.405 Q 68.814 59.798 70.261 58.914 L 70.261 58.914 L 70.261 58.914 Q 71.707 58.03 73.748 58.03 L 73.748 58.03 L 73.748 58.03 Q 75.789 58.03 76.817 58.753 L 76.817 58.753 L 76.817 58.753 Q 77.845 59.476 77.845 60.714 L 77.845 60.714 L 77.845 60.714 Q 77.845 61.951 75.885 64.136 L 75.885 64.136 L 75.885 64.136 Q 76.11 64.361 76.463 64.731 L 76.463 64.731 L 76.463 64.731 Q 76.817 65.101 77.395 66.129 L 77.395 66.129 L 77.395 66.129 Q 77.974 67.158 77.974 68.057 Z  M 74.889 63.012 L 74.889 63.012 Q 76.238 61.855 76.238 60.73 L 76.238 60.73 L 76.238 60.73 Q 76.238 59.605 74.696 59.605 L 74.696 59.605 L 74.696 59.605 Q 73.957 59.605 73.475 59.91 L 73.475 59.91 L 73.475 59.91 Q 72.992 60.216 72.992 60.601 L 72.992 60.601 L 72.992 60.601 Q 72.992 61.308 74.407 62.594 L 74.407 62.594 L 74.889 63.012 L 74.889 63.012 Z  M 83.952 72.653 L 83.952 72.653 L 83.952 72.653 Q 81.734 72.653 80.481 71.095 L 80.481 71.095 L 80.481 71.095 Q 79.227 69.536 79.227 66.74 L 79.227 66.74 L 79.227 66.74 Q 79.227 63.172 81.14 60.601 L 81.14 60.601 L 81.14 60.601 Q 83.052 58.03 86.427 58.03 L 86.427 58.03 L 87.584 58.094 L 87.584 58.094 Q 88.13 57.805 88.805 57.805 L 88.805 57.805 L 88.805 57.805 Q 91.344 57.805 91.344 62.594 L 91.344 62.594 L 91.344 62.594 Q 92.662 62.53 94.011 62.24 L 94.011 62.24 L 94.526 62.112 L 94.718 63.365 L 94.718 63.365 Q 93.658 63.815 91.858 64.169 L 91.858 64.169 L 91.215 64.297 L 91.215 64.297 Q 90.605 67.672 88.741 70.163 L 88.741 70.163 L 88.741 70.163 Q 86.877 72.653 83.952 72.653 Z  M 85.687 69.889 L 85.687 69.889 L 85.687 69.889 Q 87.037 69.889 88.114 68.154 L 88.114 68.154 L 88.114 68.154 Q 89.191 66.418 89.608 64.49 L 89.608 64.49 L 89.608 64.49 Q 86.169 64.49 86.169 61.919 L 86.169 61.919 L 86.169 61.919 Q 86.169 60.89 86.587 59.991 L 86.587 59.991 L 86.748 59.669 L 86.748 59.669 Q 86.619 59.605 86.427 59.605 L 86.427 59.605 L 86.427 59.605 Q 86.234 59.605 86.137 59.669 L 86.137 59.669 L 86.137 59.669 Q 85.334 60.183 84.627 62.08 L 84.627 62.08 L 84.627 62.08 Q 83.92 63.976 83.92 66.418 L 83.92 66.418 L 83.92 66.418 Q 83.92 69.889 85.687 69.889 Z  M 98.993 58.416 L 101.982 58.416 L 101.982 58.416 Q 101.918 59.123 101.403 60.28 L 101.403 60.28 L 101.403 60.28 Q 100.182 60.151 98.993 60.151 L 98.993 60.151 L 98.864 60.151 L 98.864 60.151 Q 98.189 68.09 97.611 71.882 L 97.611 71.882 L 97.611 71.882 Q 97.032 75.674 96.1 77.185 L 96.1 77.185 L 96.1 77.185 Q 94.943 77.153 93.706 76.88 L 93.706 76.88 L 93.706 76.88 Q 92.469 76.606 92.019 76.317 L 92.019 76.317 L 92.019 76.317 Q 92.79 73.939 93.578 69.15 L 93.578 69.15 L 93.578 69.15 Q 94.365 64.361 94.59 60.312 L 94.59 60.312 L 94.59 60.312 Q 93.69 60.376 92.597 60.537 L 92.597 60.537 L 92.597 60.537 Q 92.501 60.119 92.501 59.685 L 92.501 59.685 L 92.501 59.685 Q 92.501 59.251 92.629 58.416 L 92.629 58.416 L 94.686 58.416 L 94.686 58.416 Q 94.751 55.62 94.976 54.173 L 94.976 54.173 L 94.976 54.173 Q 95.361 51.602 96.759 50.14 L 96.759 50.14 L 96.759 50.14 Q 98.157 48.678 100.375 48.678 L 100.375 48.678 L 100.375 48.678 Q 101.789 48.678 102.609 49.304 L 102.609 49.304 L 102.609 49.304 Q 103.428 49.931 103.428 51.281 L 103.428 51.281 L 103.428 51.281 Q 103.428 52.631 102.207 54.768 L 102.207 54.768 L 102.207 54.768 Q 100.986 56.905 98.993 58.416 L 98.993 58.416 L 98.993 58.416 Z  M 99.057 56.391 L 99.057 56.391 Q 100.311 55.33 101.018 54.045 L 101.018 54.045 L 101.018 54.045 Q 101.725 52.759 101.725 51.715 L 101.725 51.715 L 101.725 51.715 Q 101.725 50.67 101.05 50.67 L 101.05 50.67 L 101.05 50.67 Q 99.636 50.67 99.25 53.916 L 99.25 53.916 L 99.25 53.916 Q 99.122 55.009 99.057 56.391 L 99.057 56.391 L 99.057 56.391 Z  M 109.053 58.416 L 112.17 58.416 L 112.17 58.416 Q 112.106 59.219 111.624 60.28 L 111.624 60.28 L 111.624 60.28 Q 110.402 60.151 109.31 60.151 L 109.31 60.151 L 108.731 60.151 L 108.731 60.151 Q 107.253 67.318 107.253 69.086 L 107.253 69.086 L 107.253 69.086 Q 107.253 70.018 107.654 70.018 L 107.654 70.018 L 107.654 70.018 Q 108.056 70.018 109.792 69.214 L 109.792 69.214 L 110.37 70.275 L 110.37 70.275 Q 107.51 72.653 105.067 72.653 L 105.067 72.653 L 105.067 72.653 Q 103.942 72.653 103.219 71.946 L 103.219 71.946 L 103.219 71.946 Q 102.496 71.239 102.496 70.066 L 102.496 70.066 L 102.496 70.066 Q 102.496 68.893 102.769 67.415 L 102.769 67.415 L 102.769 67.415 Q 103.043 65.936 103.525 63.799 L 103.525 63.799 L 103.525 63.799 Q 104.007 61.662 104.232 60.344 L 104.232 60.344 L 104.232 60.344 Q 103.043 60.44 102.464 60.537 L 102.464 60.537 L 102.464 60.537 Q 102.4 60.151 102.4 59.492 L 102.4 59.492 L 102.4 59.492 Q 102.4 58.834 102.496 58.416 L 102.496 58.416 L 104.521 58.416 L 104.521 58.416 Q 104.778 56.68 104.778 55.138 L 104.778 55.138 L 104.746 54.141 L 104.746 54.045 L 104.746 54.045 Q 107.253 53.177 109.47 53.177 L 109.47 53.177 L 109.47 53.177 Q 109.599 53.82 109.599 54.784 L 109.599 54.784 L 109.599 54.784 Q 109.599 55.748 109.053 58.416 L 109.053 58.416 L 109.053 58.416 Z " fill="rgb(255,255,255)"/></svg>